<svg width="23" height="20" viewBox="0 0 23 20" fill="none" xmlns="http://www.w3.org/2000/svg">
<path d="M2.4828 2.45942C1.39398 3.5332 0.85 4.87337 0.85 6.4693C0.85 7.2828 0.997825 8.08672 1.29251 8.88032C1.58793 9.67592 2.09975 10.5571 2.82239 11.523C3.54545 12.4895 4.5141 13.5831 5.72664 14.8033C6.93862 16.023 8.47091 17.4727 10.323 19.1521L10.324 19.1529L10.7349 19.5191C11.171 19.9077 11.829 19.9077 12.2651 19.5191L12.676 19.1529L12.677 19.1521C14.5291 17.4727 16.0614 16.023 17.2734 14.8033C18.4859 13.5831 19.4545 12.4895 20.1776 11.523C20.9002 10.5571 21.4121 9.67592 21.7075 8.88032C22.0022 8.08672 22.15 7.2828 22.15 6.4693C22.15 4.87337 21.606 3.5332 20.5172 2.45942C19.4289 1.38617 18.0823 0.85 16.4875 0.85C15.5181 0.85 14.61 1.07628 13.7654 1.52876C12.9669 1.95657 12.214 2.60731 11.5054 3.47523C10.8895 2.65504 10.1726 2.01833 9.35413 1.56842C8.48256 1.0893 7.53448 0.85 6.5125 0.85C4.91766 0.85 3.57106 1.38617 2.4828 2.45942ZM2.4828 2.45942L2.58812 2.56622L2.4828 2.45942C2.4828 2.45942 2.4828 2.45942 2.4828 2.45942ZM15.7674 13.7121C14.6474 14.837 13.2251 16.1828 11.5001 17.7496C9.79597 16.1998 8.37869 14.8666 7.24789 13.75C6.09567 12.6122 5.18633 11.6108 4.51811 10.7453C3.84908 9.87875 3.38547 9.11353 3.12127 8.4487C2.85633 7.782 2.725 7.12522 2.725 6.47749C2.725 5.36682 3.07971 4.46626 3.78352 3.763C4.48724 3.05983 5.39059 2.70525 6.50659 2.70525C7.37518 2.70525 8.17931 2.97088 8.92249 3.50641C9.51365 3.93241 10.0109 4.48626 10.4136 5.1705C10.6364 5.54907 11.0347 5.81576 11.4896 5.81576C11.9412 5.81576 12.3378 5.55302 12.5604 5.17736C12.976 4.47614 13.4817 3.9161 14.0766 3.49411C14.8198 2.96693 15.6242 2.70525 16.4934 2.70525C17.6094 2.70525 18.5128 3.05983 19.2165 3.763C19.9204 4.46634 20.275 5.36547 20.275 6.47306C20.275 7.11898 20.1437 7.7716 19.8789 8.43179C19.6148 9.09022 19.1513 9.84793 18.4823 10.7059C17.8136 11.5634 16.9092 12.5654 15.7674 13.7121Z" fill="#243208" stroke="#243208" stroke-width="0.3" stroke-linejoin="round"/>
</svg>
