<svg width="77" height="374" viewBox="0 0 77 374" fill="none" xmlns="http://www.w3.org/2000/svg">
<path d="M36.9135 198.799L36.9145 198.8L37.7388 199.528C38.1736 199.912 38.8264 199.912 39.2612 199.528L40.0855 198.8L40.0865 198.799C42.6437 196.501 44.7589 194.518 46.4317 192.85C48.105 191.182 49.4408 189.687 50.4372 188.367C51.4332 187.048 52.1368 185.847 52.5423 184.765C52.9471 183.685 53.15 182.591 53.15 181.484C53.15 179.314 52.404 177.494 50.9117 176.036C49.42 174.578 47.5753 173.85 45.3875 173.85C44.0584 173.85 42.8137 174.157 41.6559 174.772C40.5439 175.362 39.4942 176.267 38.5055 177.478C37.6493 176.333 36.6505 175.448 35.5086 174.826C34.3138 174.175 33.0142 173.85 31.6125 173.85C29.4247 173.85 27.58 174.578 26.0883 176.036C24.596 177.494 23.85 179.314 23.85 181.484C23.85 182.591 24.0529 183.685 24.4577 184.765C24.8632 185.847 25.5668 187.048 26.5628 188.367C27.5592 189.687 28.895 191.182 30.5683 192.85C32.2411 194.518 34.3563 196.501 36.9135 198.799ZM44.4341 191.434C42.8781 192.983 40.9002 194.837 38.5001 196.996C36.1291 194.86 34.1583 193.023 32.5874 191.486C30.9952 189.928 29.7375 188.556 28.8127 187.369C27.887 186.181 27.2435 185.129 26.8761 184.213C26.5079 183.295 26.325 182.389 26.325 181.496C26.325 179.963 26.8194 178.716 27.803 177.742C28.7867 176.768 30.0494 176.278 31.6043 176.278C32.8168 176.278 33.939 176.646 34.9745 177.385C35.7963 177.972 36.4869 178.734 37.0461 179.674C37.3475 180.181 37.8804 180.535 38.4857 180.535C39.0866 180.535 39.6171 180.186 39.9181 179.683C40.4949 178.72 41.1973 177.95 42.0246 177.368C43.0601 176.64 44.1827 176.278 45.3957 176.278C46.9506 176.278 48.2133 176.768 49.197 177.742C50.1807 178.716 50.675 179.961 50.675 181.489C50.675 182.381 50.4921 183.281 50.1241 184.19C49.7568 185.097 49.1134 186.139 48.1877 187.315C47.2624 188.491 46.0117 189.864 44.4341 191.434Z" fill="#243208" stroke="#243208" stroke-width="0.3" stroke-linejoin="round"/>
<path d="M1 373.5V0.5H-1V373.5H1Z" fill="#E2D9DB" mask="url(#path-1-inside-1_301_4720)"/>
</svg>
