<svg width="52" height="15" viewBox="0 0 52 15" fill="none" xmlns="http://www.w3.org/2000/svg">
<path fill-rule="evenodd" clip-rule="evenodd" d="M45.4063 12.9867C48.6692 13.0608 51.3744 10.4757 51.4485 7.21281C51.5226 3.94989 48.9376 1.2447 45.6747 1.17059C36.8801 0.970853 27.8152 0.802693 18.6746 1.52398C14.3094 1.86844 9.51155 2.28692 4.78402 3.3145C1.59473 4.00773 -0.428728 7.15513 0.264499 10.3444C0.90433 13.2881 3.63484 15.2385 6.55931 14.9765C11.7567 13.6877 22.3413 11.5539 29.8963 11.7182C37.1365 11.8756 41.2075 12.4857 43.4115 12.8161C43.8157 12.8766 44.157 12.9278 44.4436 12.965C44.7641 12.9721 45.085 12.9794 45.4063 12.9867Z" fill="#243208"/>
</svg>
