<svg width="223" height="70" viewBox="0 0 223 70" fill="none" xmlns="http://www.w3.org/2000/svg">
<path d="M14.6631 19.0903L14.788 19.0279L14.6631 19.0903ZM26.2167 35.2653C26.5914 35.0988 26.9869 35.0155 27.4033 35.0155C28.4025 35.0155 29.1935 35.6192 29.7764 36.8266C30.4009 38.034 30.7132 39.3455 30.7132 40.761C30.7132 41.5105 30.6091 42.1558 30.4009 42.697C29.7764 44.3208 28.7564 45.7988 27.3408 47.1311C25.9252 48.4634 24.2182 49.8165 22.2198 51.1905C20.263 52.4811 17.9522 53.6677 15.2876 54.7502C12.6647 55.7911 10.2291 56.3115 7.9808 56.3115C4.60841 56.3115 2.36015 54.9792 1.23602 52.3146C0.569874 50.8157 0.236799 48.9214 0.236799 46.6315C0.236799 43.7587 0.694777 40.8027 1.61073 37.7634C2.56833 34.6824 3.85899 31.0394 5.48273 26.8343C7.10648 22.7125 9.04248 18.7989 11.2907 15.0934C13.539 11.3463 16.0162 9.47277 18.7225 9.47277C19.4303 9.47277 20.0756 9.61849 20.6585 9.90993C21.1165 6.74572 22.1781 4.41419 23.8435 2.91535C24.8844 2.04103 25.7795 1.60387 26.5289 1.60387C27.4033 1.60387 28.0694 2.1243 28.5274 3.16516C28.8188 3.91458 28.9645 4.87217 28.9645 6.03793C28.9645 6.62082 28.9229 7.41187 28.8396 8.4111L28.7772 10.2846C28.6939 13.324 28.5066 16.3633 28.2151 19.4026C27.9653 22.1505 27.3616 24.7734 26.404 27.2715C25.4464 29.7695 23.9268 31.1227 21.8451 31.3308C20.8042 31.4557 19.9507 30.9145 19.2845 29.7071C18.66 28.4997 17.9939 26.7302 17.2861 24.3987C16.8281 22.8999 16.4326 21.7757 16.0995 21.0263C15.8081 20.2353 15.475 19.6524 15.1003 19.2777C12.7271 23.4828 10.9785 28.0834 9.85435 33.0795L9.54209 34.3285C9.20901 35.8274 8.93839 37.0764 8.73022 38.0756C8.56368 39.0332 8.48041 39.9908 8.48041 40.9484C8.48041 43.0717 9.02166 44.5289 10.1042 45.32C10.8536 45.9445 11.9153 46.2568 13.2892 46.2568C14.2051 46.2568 15.2044 46.1111 16.2869 45.8196C17.3694 45.5698 18.5143 45.1743 19.7217 44.633C20.0964 44.4665 20.6585 44.1751 21.4079 43.7587C21.741 43.7171 21.9075 43.5922 21.9075 43.384C21.9075 43.2175 21.8034 43.0509 21.5953 42.8844C21.6785 42.5097 21.7618 41.9892 21.8451 41.3231C21.9283 40.6986 22.0324 40.1782 22.1573 39.7618C22.2822 39.3455 22.4904 38.9083 22.7818 38.4503C23.8643 36.8682 25.0093 35.8065 26.2167 35.2653ZM45.3337 33.8289L44.8341 35.0779L49.2057 38.7626L48.7685 36.9515C48.4771 35.7857 47.8942 33.3085 47.0199 29.5197L45.3337 33.8289ZM52.4532 15.593C53.0361 19.2152 53.7647 22.8999 54.639 26.647C55.5549 30.3524 56.6583 34.62 57.9489 39.4495C59.1563 44.0293 59.9474 47.0686 60.3221 48.5675C60.3637 48.6924 60.3845 48.8797 60.3845 49.1295C60.3845 50.1288 59.8225 51.0031 58.6983 51.7525C57.5742 52.4603 56.4084 52.8142 55.201 52.8142C54.2018 52.8142 53.4316 52.5436 52.8903 52.0023C51.6829 50.7117 50.4131 49.4834 49.0808 48.3177C47.7485 47.1519 45.9998 45.7155 43.8349 44.0085L41.774 42.3223C40.0253 46.0694 38.6722 48.8381 37.7146 50.6284C37.4232 51.2529 36.6529 51.8358 35.4039 52.377C34.1965 52.8766 33.0724 53.1265 32.0315 53.1265C30.8657 53.1265 30.2829 52.7517 30.2829 52.0023C30.2829 51.7942 30.3453 51.5443 30.4702 51.2529C31.7192 48.172 33.1973 44.633 34.9043 40.6361L36.2158 37.4511C35.1749 36.4102 34.6545 35.8898 34.6545 35.8898C34.363 35.5984 34.2173 35.2653 34.2173 34.8906C34.2173 34.1828 34.6753 33.5166 35.5912 32.8921C36.5072 32.226 37.5272 31.7888 38.6514 31.5806C40.6498 26.7927 42.5234 21.9215 44.272 16.967C44.4386 16.3841 44.959 15.8845 45.8333 15.4681C46.7493 15.0101 47.7069 14.7187 48.7061 14.5938C49.4139 14.3856 50.0176 14.2815 50.5172 14.2815C51.6829 14.2815 52.3283 14.7187 52.4532 15.593ZM69.0873 3.29006C69.1705 2.49901 69.8367 1.79122 71.0857 1.16671C72.3347 0.500559 73.5213 0.167485 74.6455 0.167485C75.9778 0.167485 76.6231 0.667097 76.5815 1.66632C75.9153 9.11888 74.812 19.4026 73.2715 32.5174C72.2723 41.4688 71.627 47.2768 71.3355 49.9414C71.2523 50.8157 70.5861 51.6068 69.3371 52.3146C68.1297 52.9807 66.9431 53.3138 65.7773 53.3138C64.1536 53.3138 63.4042 52.7101 63.5291 51.5027C64.9863 37.1805 66.839 21.1096 69.0873 3.29006ZM103.264 46.1943C103.889 46.4025 104.201 46.7772 104.201 47.3185C104.201 47.9846 103.806 48.7132 103.015 49.5043C102.14 50.3786 101.016 50.8157 99.6422 50.8157C98.9761 50.8157 98.414 50.7325 97.956 50.5659C95.7494 49.8582 93.7509 49.5043 91.9607 49.5043C88.8381 49.5043 85.653 50.5035 82.4056 52.5019C81.8643 52.8766 81.1982 53.1889 80.4071 53.4387C79.6577 53.6469 78.9499 53.751 78.2837 53.751C77.6592 53.751 77.1596 53.6469 76.7849 53.4387C76.4102 53.1889 76.2228 52.8142 76.2228 52.3146C76.2228 52.0231 76.2645 51.7733 76.3477 51.5652C77.5551 48.1928 78.5127 45.1535 79.2205 42.4472C79.9699 39.741 80.4696 36.9931 80.7194 34.2036C81.0941 30.4565 81.2814 27.7086 81.2814 25.96C81.2814 21.3386 80.3863 17.7997 78.596 15.3432C78.3878 15.0934 78.2837 14.7603 78.2837 14.344C78.2837 13.5113 78.8666 12.7411 80.0324 12.0333C81.1982 11.2839 82.3431 10.9092 83.4672 10.9092C84.2167 10.9092 84.7579 11.0757 85.091 11.4088C85.6322 11.6169 85.9861 11.95 86.1527 12.408C87.1935 15.1559 88.6299 17.4874 90.4618 19.4026C92.2937 21.2761 94.4587 22.2129 96.9568 22.2129C97.4148 22.2129 98.1017 22.1296 99.0177 21.9631C99.6006 21.8798 99.9753 21.8382 100.142 21.8382C100.85 21.8382 101.37 22.0047 101.703 22.3378C102.078 22.6292 102.265 23.0456 102.265 23.5868C102.265 24.1697 102.015 24.7526 101.516 25.3355C101.058 25.9184 100.433 26.3347 99.6422 26.5845C97.9352 27.1674 96.2282 27.4588 94.5212 27.4588C92.4811 27.4588 90.5243 27.0425 88.6507 26.2098C88.5674 28.5413 88.4634 30.29 88.3385 31.4557L87.9013 35.3902C89.525 35.0988 91.1488 34.8489 92.7725 34.6408L93.6468 34.5783C95.3122 34.5783 96.1449 35.1404 96.1449 36.2645C96.1449 37.0139 95.7286 37.6801 94.8959 38.263C94.0632 38.8458 93.2097 39.2206 92.3354 39.3871C91.0447 39.6369 89.2752 39.9075 87.027 40.199C86.569 42.2391 86.0694 44.1542 85.5281 45.9445C88.276 44.9453 91.0655 44.4457 93.8967 44.4457C97.0192 44.4457 100.142 45.0286 103.264 46.1943ZM127.837 27.5837C128.004 26.7511 128.628 26.0433 129.711 25.4604C130.835 24.8775 131.938 24.5861 133.021 24.5861C134.436 24.5861 135.061 25.1273 134.894 26.2098L134.644 27.6462C134.02 31.1851 133.375 34.1828 132.708 36.6392C132.084 39.054 131.105 41.4064 129.773 43.6963C128.482 45.9862 126.775 47.7972 124.652 49.1295C121.904 50.8782 119.094 51.7525 116.221 51.7525C114.514 51.7525 112.911 51.3986 111.412 50.6908C109.955 49.9831 108.727 48.8797 107.728 47.3809C105.979 44.7996 105.105 41.8435 105.105 38.5128C105.105 34.0163 106.708 28.812 109.914 22.8999C110.996 20.8598 112.12 19.236 113.286 18.0286C114.493 16.8212 115.992 16.0926 117.782 15.8428C117.949 15.8012 118.178 15.7804 118.469 15.7804C119.136 15.7804 119.718 15.9053 120.218 16.1551C121.467 13.4072 122.425 11.3463 123.091 9.97239C123.382 9.34787 124.069 8.80662 125.152 8.34864C126.276 7.89067 127.317 7.66168 128.274 7.66168C129.523 7.66168 130.148 8.0572 130.148 8.84826C130.148 9.0148 130.085 9.2646 129.961 9.59768C127.088 16.5923 124.756 22.0255 122.966 25.8975C122.674 26.5637 121.988 27.1258 120.905 27.5837C119.864 28.0417 118.844 28.2707 117.845 28.2707C117.179 28.2707 116.637 28.1666 116.221 27.9585C115.805 27.7503 115.597 27.4172 115.597 26.9592C115.597 26.6678 115.68 26.3555 115.846 26.0225L116.783 23.8991C116.575 23.8575 116.388 23.7534 116.221 23.5868L114.972 26.5221C113.806 29.0618 113.036 31.6015 112.661 34.1412C112.537 34.9322 112.474 35.7441 112.474 36.5768C112.474 38.3671 112.745 40.0532 113.286 41.6354C113.827 43.2175 114.681 44.4873 115.846 45.4449C116.804 46.2776 117.741 46.6939 118.657 46.6939C122.321 46.6939 125.381 40.3239 127.837 27.5837ZM120.093 69.1141C119.052 69.3222 118.095 69.4263 117.22 69.4263C116.513 69.4263 115.784 69.3639 115.035 69.239C114.202 69.0724 113.515 68.8643 112.974 68.6145L111.475 67.8026L112.162 68.1773C111.412 67.7609 111.038 67.1989 111.038 66.4911C111.038 66.0748 111.163 65.6376 111.412 65.1796C111.662 64.7633 111.974 64.3886 112.349 64.0555C112.932 63.5559 113.598 63.1603 114.348 62.8689C115.097 62.5775 115.846 62.4317 116.596 62.4317C117.304 62.4317 117.928 62.5566 118.469 62.8065C118.802 62.9314 119.094 62.9938 119.344 62.9938C119.802 62.9938 120.156 62.8273 120.405 62.4942C120.655 62.1611 120.78 61.7656 120.78 61.3076C120.78 60.6831 120.551 60.121 120.093 59.6214C119.635 59.1634 119.011 58.9761 118.22 59.0594C117.304 59.1843 116.409 59.0802 115.534 58.7471C114.66 58.414 114.223 57.8936 114.223 57.1858C114.223 56.7278 114.452 56.2074 114.91 55.6245C115.284 55.1665 115.638 54.5628 115.971 53.8134C116.304 53.064 116.596 52.3562 116.846 51.6901C117.179 50.899 117.762 50.2329 118.594 49.6916C119.427 49.1504 120.343 48.7548 121.342 48.505C121.675 48.4218 122.175 48.3801 122.841 48.3801C124.673 48.3801 125.422 48.8589 125.089 49.8165C124.798 50.6492 124.319 51.8566 123.653 53.4387C125.402 53.7302 126.796 54.4379 127.837 55.5621C128.836 56.6029 129.336 57.852 129.336 59.3092C129.336 60.5582 128.92 61.9113 128.087 63.3685C127.213 64.7841 126.068 65.9915 124.652 66.9907C123.278 67.9899 121.759 68.6977 120.093 69.1141ZM157.703 39.4495C158.661 37.2013 159.14 34.8906 159.14 32.5174C159.14 30.6439 158.806 28.9369 158.14 27.3964C157.516 25.8143 156.517 24.5236 155.143 23.5244C154.227 22.8582 153.352 22.5252 152.52 22.5252C152.187 22.5252 151.77 22.6084 151.271 22.775C151.645 22.9415 151.833 23.2329 151.833 23.6493C151.833 23.8991 151.749 24.1905 151.583 24.5236C150.625 26.3555 149.876 28.354 149.335 30.519C148.793 32.6423 148.523 34.7865 148.523 36.9515C148.523 39.4495 148.897 41.8227 149.647 44.071C150.147 45.32 150.667 46.2984 151.208 47.0062C151.458 47.2976 151.708 47.5058 151.958 47.6307C153.165 46.798 154.248 45.6323 155.205 44.1334C156.204 42.6346 157.037 41.0733 157.703 39.4495ZM156.829 17.529C158.869 17.9454 160.618 18.8405 162.075 20.2145C163.532 21.5884 164.635 23.2538 165.385 25.2106C166.134 27.1258 166.509 29.1242 166.509 31.2059C166.509 33.6624 166.03 36.1812 165.072 38.7626C164.115 41.3439 162.803 43.7171 161.138 45.8821C159.473 48.0471 157.62 49.7541 155.58 51.0031C153.665 52.1689 151.791 52.7517 149.959 52.7517C148.127 52.7517 146.524 52.1897 145.15 51.0655C143.776 49.9414 142.777 48.3177 142.153 46.1943C141.445 44.0293 141.091 41.5937 141.091 38.8875C141.091 37.2637 141.216 35.6816 141.466 34.1412C141.174 34.2244 140.737 34.2661 140.154 34.2661C138.739 34.2661 138.031 33.7873 138.031 32.8297C138.031 32.4966 138.073 32.226 138.156 32.0178C139.571 28.0625 141.695 24.6277 144.526 21.7133C147.399 18.7572 150.688 17.2792 154.393 17.2792C154.934 17.2792 155.746 17.3625 156.829 17.529ZM191.65 17.1543C190.65 24.7318 190.151 31.8721 190.151 38.5752C190.151 41.8227 190.276 45.1118 190.525 48.4426C190.609 48.6924 190.65 48.9006 190.65 49.0671C190.65 49.192 190.609 49.3794 190.525 49.6292C190.525 49.6708 190.505 49.6916 190.463 49.6916V49.8165C190.213 50.5243 189.63 51.1488 188.714 51.6901C187.798 52.1897 186.82 52.4811 185.779 52.5644C184.114 52.7309 183.114 52.2938 182.781 51.2529C181.324 47.3393 179.013 41.9268 175.849 35.0155L175.1 33.2668C174.767 38.4711 174.559 44.0293 174.475 49.9414C174.475 50.8157 173.892 51.6068 172.727 52.3146C171.561 52.9807 170.374 53.3138 169.167 53.3138C168.418 53.3138 167.814 53.1681 167.356 52.8766C166.898 52.5852 166.69 52.1064 166.731 51.4403C166.981 40.1157 167.793 29.3948 169.167 19.2777L169.229 19.0279C169.146 18.1119 169.708 17.2792 170.916 16.5298C172.123 15.7804 173.33 15.4057 174.538 15.4057C175.787 15.4057 176.557 15.822 176.849 16.6547C178.181 20.2769 180.158 24.94 182.781 30.6439C183.031 26.7302 183.468 22.7541 184.093 18.7156C184.218 17.8829 184.884 17.1543 186.091 16.5298C187.299 15.8637 188.485 15.5306 189.651 15.5306C191.15 15.5306 191.816 16.0718 191.65 17.1543ZM215.12 25.5228C214.329 24.8567 212.955 23.9824 210.998 22.8999C209.083 21.7757 207.605 21.2137 206.564 21.2137C205.731 21.2137 205.315 21.63 205.315 22.4627C205.315 22.7542 205.419 23.2538 205.627 23.9615C205.918 24.9191 206.564 25.8351 207.563 26.7094C208.562 27.5421 209.874 28.5205 211.497 29.6446C212.83 30.5606 213.683 31.1851 214.058 31.5182C215.89 33.1003 217.347 34.4326 218.43 35.5151C219.512 36.556 220.49 37.805 221.365 39.2622C222.281 40.6778 222.739 42.135 222.739 43.6338C222.739 44.633 222.489 45.6739 221.989 46.7564C221.032 48.7132 219.45 50.212 217.243 51.2529C215.078 52.2938 212.767 52.8142 210.311 52.8142C209.478 52.8142 208.645 52.7517 207.813 52.6268C202.151 51.6692 196.925 47.9013 192.137 41.3231C191.888 40.9484 191.763 40.5737 191.763 40.199C191.763 39.283 192.366 38.4503 193.574 37.7009C194.823 36.9098 196.051 36.5143 197.258 36.5143C198.174 36.5143 198.841 36.7849 199.257 37.3262C201.838 40.8235 204.378 43.384 206.876 45.0077C209.166 46.5066 211.102 47.256 212.684 47.256C213.975 47.256 214.62 46.6939 214.62 45.5698C214.62 44.7788 214.308 43.8003 213.683 42.6346C213.059 41.5105 212.247 40.4488 211.248 39.4495C210.248 38.4503 208.979 37.3054 207.438 36.0147L205.752 34.5783C205.585 34.4118 204.815 33.8081 203.441 32.7672C202.317 31.9345 201.359 31.1643 200.568 30.4565C199.777 29.7487 199.111 28.9785 198.57 28.1458C197.862 27.0217 197.508 25.8559 197.508 24.6485C197.508 22.775 198.299 21.068 199.881 19.5275C201.505 17.9454 203.358 16.8629 205.44 16.28C206.772 15.9053 208.042 15.7179 209.249 15.7179C211.497 15.7179 213.662 16.2384 215.744 17.2792C217.868 18.3201 220.012 19.7565 222.177 21.5884C222.551 21.8798 222.739 22.2337 222.739 22.6501C222.739 23.4411 222.093 24.2114 220.803 24.9608C219.512 25.7102 218.242 26.0849 216.993 26.0849C216.16 26.0849 215.536 25.8975 215.12 25.5228Z" fill="#F2C8F9"/>
</svg>
