<svg width="270" height="53" viewBox="0 0 270 53" fill="none" xmlns="http://www.w3.org/2000/svg">
<path d="M37.1249 1.28929C38.0408 1.33092 38.4988 1.7889 38.4988 2.66323C38.4988 3.37101 38.2698 4.18288 37.8118 5.09884C37.3538 6.0148 36.8959 6.7434 36.4379 7.28465C35.5636 8.36714 34.5643 9.09574 33.4402 9.47045C32.3161 9.84516 31.0254 10.0325 29.5682 10.0325C29.0686 10.0325 28.2775 9.99088 27.1951 9.90761C25.8627 9.82434 24.8635 9.80353 24.1974 9.84516C23.8643 9.84516 23.4688 9.84516 23.0108 9.84516C22.5944 9.84516 22.303 9.92843 22.1365 10.095C22.0116 10.2615 21.845 10.6362 21.6369 11.2191C21.512 11.6354 21.4287 12.1767 21.387 12.8428C21.387 13.509 21.387 13.9878 21.387 14.2792L20.9499 21.2114C20.825 23.6261 20.7417 25.7495 20.7001 27.5814C20.6584 29.3717 20.6168 30.8705 20.5752 32.0779C20.5752 33.7017 20.5544 34.9091 20.5127 35.7001C20.8458 35.6169 21.0748 35.5752 21.1997 35.5752C22.1157 35.5752 22.5736 36.283 22.5736 37.6986C22.5736 38.6978 22.4071 39.7595 22.074 40.8836C21.7826 42.0077 21.4079 43.2568 20.9499 44.6307C20.7001 45.3385 20.1588 46.2961 19.3261 47.5035C18.5351 48.6692 17.64 49.6893 16.6407 50.5636C15.6415 51.4379 14.7672 51.8751 14.0178 51.8751C13.0602 51.8751 12.4148 51.1257 12.0818 49.6268C11.7487 48.1696 11.5821 46.421 11.5821 44.3809C11.5821 42.091 11.8111 39.1974 12.2691 35.7001L12.7063 31.2036C13.3308 23.0849 14.101 16.465 15.017 11.344C14.7672 11.4273 14.0802 11.6563 12.9561 12.031C11.8736 12.364 10.8744 12.7596 9.9584 13.2175C9.04245 13.6755 8.33466 14.1543 7.83505 14.6539C7.2938 15.2368 6.81501 15.9862 6.39866 16.9022C5.85742 17.8182 5.37862 18.5259 4.96228 19.0255C4.58757 19.5252 4.0255 19.9207 3.27608 20.2121C2.8181 20.4203 2.36013 20.5244 1.90215 20.5244C1.02782 20.5244 0.590663 19.9831 0.590663 18.9006C0.590663 18.1929 0.7572 17.3602 1.09028 16.4026C1.42335 15.445 1.77724 14.6748 2.15195 14.0919C4.94146 9.51209 9.2298 6.22297 15.017 4.22452C20.8042 2.18443 26.9244 1.16439 33.3778 1.16439C34.2937 1.16439 35.5427 1.20602 37.1249 1.28929ZM61.5464 43.1943C62.1709 43.4025 62.4831 43.7772 62.4831 44.3185C62.4831 44.9846 62.0876 45.7132 61.2966 46.5043C60.4222 47.3786 59.2981 47.8157 57.9242 47.8157C57.258 47.8157 56.696 47.7325 56.238 47.5659C54.0314 46.8582 52.0329 46.5043 50.2426 46.5043C47.12 46.5043 43.935 47.5035 40.6875 49.5019C40.1463 49.8766 39.4801 50.1889 38.6891 50.4387C37.9397 50.6469 37.2319 50.751 36.5657 50.751C35.9412 50.751 35.4416 50.6469 35.0669 50.4387C34.6922 50.1889 34.5048 49.8142 34.5048 49.3146C34.5048 49.0231 34.5464 48.7733 34.6297 48.5652C35.8371 45.1928 36.7947 42.1535 37.5025 39.4472C38.2519 36.741 38.7515 33.9931 39.0013 31.2036C39.376 27.4565 39.5634 24.7086 39.5634 22.96C39.5634 18.3386 38.6683 14.7997 36.878 12.3432C36.6698 12.0934 36.5657 11.7603 36.5657 11.344C36.5657 10.5113 37.1486 9.74108 38.3144 9.03329C39.4801 8.28387 40.6251 7.90916 41.7492 7.90916C42.4986 7.90916 43.0399 8.0757 43.3729 8.40877C43.9142 8.61695 44.2681 8.95002 44.4346 9.408C45.4755 12.1559 46.9119 14.4874 48.7438 16.4026C50.5757 18.2761 52.7407 19.2129 55.2387 19.2129C55.6967 19.2129 56.3837 19.1296 57.2997 18.9631C57.8825 18.8798 58.2572 18.8382 58.4238 18.8382C59.1316 18.8382 59.652 19.0047 59.9851 19.3378C60.3598 19.6292 60.5471 20.0456 60.5471 20.5868C60.5471 21.1697 60.2973 21.7526 59.7977 22.3355C59.3397 22.9184 58.7152 23.3347 57.9242 23.5845C56.2172 24.1674 54.5101 24.4588 52.8031 24.4588C50.7631 24.4588 48.8062 24.0425 46.9327 23.2098C46.8494 25.5413 46.7453 27.29 46.6204 28.4557L46.1833 32.3902C47.807 32.0988 49.4308 31.8489 51.0545 31.6408L51.9288 31.5783C53.5942 31.5783 54.4269 32.1404 54.4269 33.2645C54.4269 34.0139 54.0105 34.6801 53.1778 35.263C52.3452 35.8458 51.4917 36.2206 50.6173 36.3871C49.3267 36.6369 47.5572 36.9075 45.3089 37.199C44.851 39.2391 44.3514 41.1542 43.8101 42.9445C46.558 41.9453 49.3475 41.4457 52.1786 41.4457C55.3012 41.4457 58.4238 42.0286 61.5464 43.1943ZM90.9903 43.1943C91.6149 43.4025 91.9271 43.7772 91.9271 44.3185C91.9271 44.9846 91.5316 45.7132 90.7405 46.5043C89.8662 47.3786 88.7421 47.8157 87.3682 47.8157C86.702 47.8157 86.1399 47.7325 85.682 47.5659C83.4753 46.8582 81.4769 46.5043 79.6866 46.5043C76.564 46.5043 73.379 47.5035 70.1315 49.5019C69.5903 49.8766 68.9241 50.1889 68.1331 50.4387C67.3836 50.6469 66.6759 50.751 66.0097 50.751C65.3852 50.751 64.8856 50.6469 64.5109 50.4387C64.1362 50.1889 63.9488 49.8142 63.9488 49.3146C63.9488 49.0231 63.9904 48.7733 64.0737 48.5652C65.2811 45.1928 66.2387 42.1535 66.9465 39.4472C67.6959 36.741 68.1955 33.9931 68.4453 31.2036C68.82 27.4565 69.0074 24.7086 69.0074 22.96C69.0074 18.3386 68.1122 14.7997 66.322 12.3432C66.1138 12.0934 66.0097 11.7603 66.0097 11.344C66.0097 10.5113 66.5926 9.74108 67.7583 9.03329C68.9241 8.28387 70.0691 7.90916 71.1932 7.90916C71.9426 7.90916 72.4839 8.0757 72.8169 8.40877C73.3582 8.61695 73.7121 8.95002 73.8786 9.408C74.9195 12.1559 76.3559 14.4874 78.1878 16.4026C80.0197 18.2761 82.1847 19.2129 84.6827 19.2129C85.1407 19.2129 85.8277 19.1296 86.7436 18.9631C87.3265 18.8798 87.7012 18.8382 87.8678 18.8382C88.5756 18.8382 89.096 19.0047 89.4291 19.3378C89.8038 19.6292 89.9911 20.0456 89.9911 20.5868C89.9911 21.1697 89.7413 21.7526 89.2417 22.3355C88.7837 22.9184 88.1592 23.3347 87.3682 23.5845C85.6611 24.1674 83.9541 24.4588 82.2471 24.4588C80.207 24.4588 78.2502 24.0425 76.3767 23.2098C76.2934 25.5413 76.1893 27.29 76.0644 28.4557L75.6272 32.3902C77.251 32.0988 78.8747 31.8489 80.4985 31.6408L81.3728 31.5783C83.0382 31.5783 83.8709 32.1404 83.8709 33.2645C83.8709 34.0139 83.4545 34.6801 82.6218 35.263C81.7891 35.8458 80.9356 36.2206 80.0613 36.3871C78.7706 36.6369 77.0012 36.9075 74.7529 37.199C74.2949 39.2391 73.7953 41.1542 73.2541 42.9445C76.002 41.9453 78.7915 41.4457 81.6226 41.4457C84.7452 41.4457 87.8678 42.0286 90.9903 43.1943ZM94.0173 31.2036C92.9764 31.0371 92.456 30.6832 92.456 30.1419C92.456 29.684 92.8515 29.1427 93.6426 28.5182C94.4336 27.8937 95.3288 27.3941 96.328 27.0194C97.3272 26.603 98.1391 26.4365 98.7636 26.5197C101.262 26.8945 103.697 27.0818 106.07 27.0818C108.902 27.0818 111.795 26.832 114.751 26.3324C115.626 26.2075 116.188 26.145 116.437 26.145C117.728 26.145 118.394 26.6238 118.436 27.5814C118.478 28.3308 117.957 28.997 116.875 29.5799C115.834 30.1628 114.855 30.5375 113.939 30.704C110.567 31.5367 106.903 31.953 102.948 31.953C99.9086 31.953 96.9317 31.7032 94.0173 31.2036ZM143.043 22.5228C142.252 21.8567 140.878 20.9824 138.921 19.8999C137.006 18.7757 135.528 18.2137 134.487 18.2137C133.654 18.2137 133.238 18.63 133.238 19.4627C133.238 19.7542 133.342 20.2538 133.55 20.9615C133.842 21.9191 134.487 22.8351 135.486 23.7094C136.485 24.5421 137.797 25.5205 139.421 26.6446C140.753 27.5606 141.606 28.1851 141.981 28.5182C143.813 30.1003 145.27 31.4326 146.353 32.5151C147.435 33.556 148.414 34.805 149.288 36.2622C150.204 37.6778 150.662 39.135 150.662 40.6338C150.662 41.633 150.412 42.6739 149.912 43.7564C148.955 45.7132 147.373 47.212 145.166 48.2529C143.001 49.2938 140.69 49.8142 138.234 49.8142C137.401 49.8142 136.569 49.7517 135.736 49.6268C130.074 48.6692 124.849 44.9013 120.061 38.3231C119.811 37.9484 119.686 37.5737 119.686 37.199C119.686 36.283 120.29 35.4503 121.497 34.7009C122.746 33.9098 123.974 33.5143 125.182 33.5143C126.098 33.5143 126.764 33.7849 127.18 34.3262C129.761 37.8235 132.301 40.384 134.799 42.0077C137.089 43.5066 139.025 44.256 140.607 44.256C141.898 44.256 142.543 43.6939 142.543 42.5698C142.543 41.7788 142.231 40.8003 141.606 39.6346C140.982 38.5105 140.17 37.4488 139.171 36.4495C138.172 35.4503 136.902 34.3054 135.361 33.0147L133.675 31.5783C133.509 31.4118 132.738 30.8081 131.364 29.7672C130.24 28.9345 129.283 28.1643 128.492 27.4565C127.701 26.7487 127.034 25.9785 126.493 25.1458C125.785 24.0217 125.431 22.8559 125.431 21.6485C125.431 19.775 126.222 18.068 127.805 16.5275C129.428 14.9454 131.281 13.8629 133.363 13.28C134.695 12.9053 135.965 12.7179 137.172 12.7179C139.421 12.7179 141.586 13.2384 143.667 14.2792C145.791 15.3201 147.935 16.7565 150.1 18.5884C150.475 18.8798 150.662 19.2337 150.662 19.6501C150.662 20.4411 150.017 21.2114 148.726 21.9608C147.435 22.7102 146.165 23.0849 144.916 23.0849C144.084 23.0849 143.459 22.8975 143.043 22.5228ZM166.048 16.1528C166.048 15.2785 166.589 14.529 167.672 13.9045C168.754 13.28 169.878 12.9677 171.044 12.9677C171.752 12.9677 172.314 13.1135 172.73 13.4049C173.147 13.6547 173.334 14.0711 173.292 14.6539C173.209 18.2345 173.126 23.647 173.043 30.8914L172.73 47.1912C172.689 48.1072 172.106 48.8982 170.982 49.5644C169.899 50.2305 168.775 50.5636 167.609 50.5636C166.86 50.5636 166.256 50.4179 165.798 50.1265C165.382 49.7934 165.174 49.3146 165.174 48.6901L165.423 38.448C165.257 38.4896 165.007 38.5105 164.674 38.5105L163.425 38.448C163.134 38.4064 162.696 38.3855 162.113 38.3855C161.822 38.3855 161.468 38.4272 161.052 38.5105C160.844 42.6739 160.552 46.2128 160.177 49.1272C160.094 50.0015 159.449 50.7718 158.241 51.4379C157.076 52.1041 155.91 52.4372 154.744 52.4372C154.036 52.4372 153.474 52.2914 153.058 52C152.683 51.7086 152.517 51.2714 152.558 50.6885C153.183 44.943 153.578 39.697 153.745 34.9507L153.807 33.0772C153.932 29.455 153.995 27.061 153.995 25.8952C153.995 22.1481 153.766 19.8374 153.308 18.9631C152.642 19.0047 152.121 18.9006 151.747 18.6508C151.413 18.3594 151.247 18.0055 151.247 17.5892C151.247 17.1728 151.413 16.7357 151.747 16.2777C152.08 15.8197 152.496 15.445 152.996 15.1535C154.578 14.2792 155.931 13.8421 157.055 13.8421C157.971 13.8421 158.783 14.1335 159.491 14.7164C160.573 15.6323 161.114 17.5475 161.114 20.4619L161.052 23.5845C161.177 25.7079 161.239 27.852 161.239 30.017L161.177 33.7017C161.427 33.6184 161.822 33.6184 162.363 33.7017C162.905 33.7849 163.321 33.8266 163.612 33.8266C163.904 33.8266 164.237 33.8058 164.612 33.7641C164.986 33.6809 165.319 33.6184 165.611 33.5768L166.048 16.1528ZM178.811 16.2152C178.853 15.3825 179.456 14.6539 180.622 14.0294C181.788 13.3633 182.954 13.0302 184.119 13.0302C184.786 13.0302 185.327 13.1759 185.743 13.4674C186.159 13.7172 186.347 14.1335 186.305 14.7164L184.494 48.6276C184.452 49.5019 183.849 50.2722 182.683 50.9383C181.517 51.5628 180.351 51.8751 179.186 51.8751C177.645 51.8751 176.896 51.2714 176.937 50.064L178.811 16.2152ZM178.686 7.97161C178.603 8.55449 178.749 8.99166 179.123 9.2831C179.54 9.57454 180.081 9.72026 180.747 9.72026C181.871 9.72026 183.016 9.408 184.182 8.78348C185.348 8.15897 185.993 7.40955 186.118 6.53522C186.451 4.4535 186.68 2.89221 186.805 1.85135C186.971 0.810493 186.326 0.290062 184.869 0.290062C183.745 0.290062 182.579 0.602321 181.371 1.22684C180.164 1.85135 179.519 2.55914 179.435 3.35019L178.686 7.97161ZM199.93 27.5814C201.554 26.2908 202.866 25.1458 203.865 24.1466C204.906 23.1474 205.697 22.1481 206.238 21.1489C203.99 20.566 200.659 19.6084 196.246 18.2761L195.933 30.9538C197.182 29.9129 197.911 29.2884 198.119 29.0803L199.93 27.5814ZM209.985 36.3246C210.318 35.6585 211.026 35.0964 212.108 34.6385C213.191 34.1388 214.232 33.889 215.231 33.889C216.605 33.889 217.292 34.3262 217.292 35.2005C217.292 35.4503 217.229 35.7418 217.105 36.0748C215.398 40.0717 214.107 43.9437 213.233 47.6908C213.024 48.5235 212.421 49.2938 211.421 50.0015C211.005 50.5428 210.36 51.0008 209.485 51.3755C208.653 51.7502 207.82 51.9375 206.987 51.9375C206.28 51.9375 205.697 51.7918 205.239 51.5004C204.822 51.2089 204.593 50.751 204.552 50.1265C204.385 47.4202 203.49 44.943 201.866 42.6947C200.284 40.4465 198.244 38.9892 195.746 38.3231L195.434 47.3786C195.392 48.1696 194.726 48.8982 193.435 49.5644C192.186 50.2305 190.979 50.5636 189.813 50.5636C189.189 50.5636 188.689 50.4595 188.314 50.2514C187.94 50.0015 187.752 49.6268 187.752 49.1272L187.94 40.5089C187.398 40.1342 187.128 39.697 187.128 39.1974C187.128 38.6145 187.44 38.0525 188.065 37.5112C188.273 29.9338 188.523 22.3771 188.814 14.8413C188.856 13.967 189.438 13.2175 190.563 12.593C191.728 11.9269 192.894 11.5938 194.06 11.5938C194.934 11.5938 195.559 11.802 195.933 12.2183C200.472 13.4674 205.176 14.8413 210.048 16.3401C210.797 16.1736 211.317 16.0903 211.609 16.0903C212.317 16.0903 212.858 16.2569 213.233 16.5899C213.649 16.8814 213.857 17.3394 213.857 17.9639C213.857 19.6709 213.295 21.253 212.171 22.7102C211.047 24.1258 209.485 25.7079 207.487 27.4565L206.238 28.5806C204.24 30.5375 202.304 32.2653 200.43 33.7641C203.844 34.7217 206.592 36.6161 208.674 39.4472C208.84 39.0309 209.277 37.99 209.985 36.3246ZM235.78 12.593C236.654 12.5098 237.32 12.6138 237.778 12.9053C238.278 13.1967 238.798 13.7588 239.339 14.5915C239.672 15.1327 239.839 15.5907 239.839 15.9654C239.839 16.8814 239.256 17.4226 238.09 17.5892L235.904 17.839C233.864 18.1304 232.782 18.2761 232.657 18.2761C231.949 24.9376 231.387 30.7248 230.971 35.6377C230.554 40.5505 230.284 45.4009 230.159 50.1889C230.117 50.7718 229.867 51.2089 229.409 51.5004C228.993 51.7918 228.431 51.9375 227.723 51.9375C226.474 51.9375 225.225 51.6045 223.976 50.9383C222.769 50.2305 222.186 49.4395 222.228 48.5652C222.352 44.1519 222.602 39.6554 222.977 35.0756C223.352 30.4542 223.851 25.1042 224.476 19.0255L220.541 19.5252C219.958 19.5668 219.5 19.546 219.167 19.4627C218.876 19.3378 218.585 19.088 218.293 18.7133C218.002 18.3386 217.71 17.9222 217.419 17.4643C217.086 17.0063 216.919 16.5483 216.919 16.0903C216.919 15.7156 217.065 15.3825 217.356 15.0911C217.648 14.7997 218.085 14.6123 218.668 14.529C219.584 14.4041 220.645 14.2584 221.853 14.0919L225.038 13.6547L226.162 2.85058C226.287 1.68482 227.14 1.10193 228.722 1.10193C229.972 1.10193 231.179 1.45583 232.345 2.16361C233.552 2.82976 234.114 3.6 234.031 4.47432L233.219 12.8428C234.385 12.7596 235.238 12.6763 235.78 12.593ZM262.269 22.5228C261.478 21.8567 260.104 20.9824 258.147 19.8999C256.232 18.7757 254.754 18.2137 253.713 18.2137C252.881 18.2137 252.464 18.63 252.464 19.4627C252.464 19.7542 252.568 20.2538 252.777 20.9615C253.068 21.9191 253.713 22.8351 254.713 23.7094C255.712 24.5421 257.023 25.5205 258.647 26.6446C259.979 27.5606 260.833 28.1851 261.208 28.5182C263.039 30.1003 264.497 31.4326 265.579 32.5151C266.662 33.556 267.64 34.805 268.514 36.2622C269.43 37.6778 269.888 39.135 269.888 40.6338C269.888 41.633 269.639 42.6739 269.139 43.7564C268.181 45.7132 266.599 47.212 264.393 48.2529C262.228 49.2938 259.917 49.8142 257.46 49.8142C256.628 49.8142 255.795 49.7517 254.962 49.6268C249.3 48.6692 244.075 44.9013 239.287 38.3231C239.037 37.9484 238.912 37.5737 238.912 37.199C238.912 36.283 239.516 35.4503 240.723 34.7009C241.972 33.9098 243.201 33.5143 244.408 33.5143C245.324 33.5143 245.99 33.7849 246.407 34.3262C248.988 37.8235 251.528 40.384 254.026 42.0077C256.316 43.5066 258.252 44.256 259.834 44.256C261.124 44.256 261.77 43.6939 261.77 42.5698C261.77 41.7788 261.457 40.8003 260.833 39.6346C260.208 38.5105 259.396 37.4488 258.397 36.4495C257.398 35.4503 256.128 34.3054 254.588 33.0147L252.902 31.5783C252.735 31.4118 251.965 30.8081 250.591 29.7672C249.467 28.9345 248.509 28.1643 247.718 27.4565C246.927 26.7487 246.261 25.9785 245.72 25.1458C245.012 24.0217 244.658 22.8559 244.658 21.6485C244.658 19.775 245.449 18.068 247.031 16.5275C248.655 14.9454 250.508 13.8629 252.589 13.28C253.922 12.9053 255.191 12.7179 256.399 12.7179C258.647 12.7179 260.812 13.2384 262.894 14.2792C265.017 15.3201 267.161 16.7565 269.326 18.5884C269.701 18.8798 269.888 19.2337 269.888 19.6501C269.888 20.4411 269.243 21.2114 267.952 21.9608C266.662 22.7102 265.392 23.0849 264.143 23.0849C263.31 23.0849 262.686 22.8975 262.269 22.5228Z" fill="#F2C8F9"/>
</svg>
