<svg width="314" height="52" viewBox="0 0 314 52" fill="none" xmlns="http://www.w3.org/2000/svg">
<path d="M22.8862 28.768C23.5524 29.0178 24.3018 29.3717 25.1345 29.8297C23.8855 25.3332 22.9279 21.5028 22.2617 18.3386C20.638 21.5861 18.4938 25.5413 15.8292 30.2044C15.621 30.6624 15.2672 31.3077 14.7675 32.1404C16.4329 29.5591 18.3273 28.2684 20.4506 28.2684C21.2833 28.2684 22.0952 28.4349 22.8862 28.768ZM32.8785 19.8999C34.5855 25.6871 36.6048 31.0787 38.9363 36.0748L39.6233 37.4488C40.2062 38.448 40.6433 39.3015 40.9348 40.0093C41.2262 40.6754 41.3719 41.3624 41.3719 42.0702C41.3719 43.1527 40.9139 44.2768 39.998 45.4426C39.082 46.5667 38.0828 47.3994 37.0003 47.9406C36.3342 48.3154 35.6264 48.5027 34.877 48.5027C33.6279 48.5027 32.3789 48.128 31.1299 47.3786C29.9225 46.5875 28.4653 45.4634 26.7582 44.0062C25.5509 43.007 24.6349 42.2992 24.0104 41.8828C23.594 41.5914 22.7197 41.1334 21.3874 40.5089C19.0559 39.3431 17.2448 38.3023 15.9541 37.3863C14.7051 36.4704 14.0806 35.3879 14.0806 34.1388C14.0806 33.8058 14.2263 33.3062 14.5177 32.64C13.7267 34.0556 12.6234 36.2206 11.2078 39.135C9.45915 42.6739 8.45993 44.6515 8.21012 45.0679C7.71051 45.9838 6.89863 47.0039 5.77451 48.128C4.65038 49.2105 3.60952 49.7517 2.65193 49.7517C2.15231 49.7517 1.71515 49.5644 1.34044 49.1897C1.049 48.8982 0.90328 48.4403 0.90328 47.8157C0.90328 46.0671 2.23558 42.9653 4.90018 38.5105C5.06672 38.1774 5.33734 37.6986 5.71205 37.0741L7.08599 34.4511C9.91713 29.1219 11.978 25.1042 13.2687 22.3979C14.0181 20.8158 15.1006 18.4427 16.5162 15.2785L18.7644 10.2199C19.6804 8.26305 20.5964 6.63931 21.5123 5.34864C22.4283 4.01634 23.5732 2.9963 24.9472 2.28851C25.6549 1.9138 26.3211 1.72645 26.9456 1.72645C27.7783 1.72645 28.382 2.12198 28.7567 2.91303C29.1314 3.66245 29.4645 4.78658 29.7559 6.28542C30.5053 10.5738 31.5462 15.1119 32.8785 19.8999ZM64.1487 24.5837C64.3152 23.7511 64.9398 23.0433 66.0223 22.4604C67.1464 21.8775 68.2497 21.5861 69.3322 21.5861C70.7478 21.5861 71.3723 22.1273 71.2057 23.2098L70.9559 24.6462C70.3314 28.1851 69.6861 31.1828 69.0199 33.6392C68.3954 36.054 67.417 38.4064 66.0847 40.6963C64.794 42.9862 63.087 44.7972 60.9637 46.1295C58.2158 47.8782 55.4055 48.7525 52.5327 48.7525C50.8257 48.7525 49.2228 48.3986 47.7239 47.6908C46.2667 46.9831 45.0385 45.8797 44.0393 44.3809C42.2906 41.7996 41.4163 38.8435 41.4163 35.5128C41.4163 31.0163 43.0192 25.812 46.2251 19.8999C47.3076 17.8598 48.4317 16.236 49.5975 15.0286C50.8049 13.8212 52.3037 13.0926 54.094 12.8428C54.2605 12.8012 54.4895 12.7804 54.781 12.7804C55.4471 12.7804 56.03 12.9053 56.5296 13.1551C57.7786 10.4072 58.7362 8.34632 59.4024 6.97239C59.6938 6.34787 60.3808 5.80662 61.4633 5.34864C62.5874 4.89067 63.6283 4.66168 64.5859 4.66168C65.8349 4.66168 66.4594 5.0572 66.4594 5.84826C66.4594 6.0148 66.397 6.2646 66.2721 6.59768C63.3993 13.5923 61.0678 19.0255 59.2775 22.8975C58.986 23.5637 58.2991 24.1258 57.2166 24.5837C56.1757 25.0417 55.1557 25.2707 54.1565 25.2707C53.4903 25.2707 52.9491 25.1666 52.5327 24.9585C52.1164 24.7503 51.9082 24.4172 51.9082 23.9592C51.9082 23.6678 51.9915 23.3555 52.158 23.0225L53.0948 20.8991C52.8866 20.8575 52.6992 20.7534 52.5327 20.5868L51.2837 23.5221C50.1179 26.0618 49.3477 28.6015 48.973 31.1412C48.8481 31.9322 48.7856 32.7441 48.7856 33.5768C48.7856 35.3671 49.0562 37.0532 49.5975 38.6354C50.1387 40.2175 50.9922 41.4873 52.158 42.4449C53.1156 43.2776 54.0524 43.6939 54.9683 43.6939C58.6322 43.6939 61.6923 37.3239 64.1487 24.5837ZM92.129 24.5837C92.2955 23.7511 92.92 23.0433 94.0025 22.4604C95.1267 21.8775 96.23 21.5861 97.3125 21.5861C98.728 21.5861 99.3526 22.1273 99.186 23.2098L98.9362 24.6462C98.3117 28.1851 97.6664 31.1828 97.0002 33.6392C96.3757 36.054 95.3973 38.4064 94.065 40.6963C92.7743 42.9862 91.0673 44.7972 88.944 46.1295C86.1961 47.8782 83.3858 48.7525 80.513 48.7525C78.806 48.7525 77.2031 48.3986 75.7042 47.6908C74.247 46.9831 73.0188 45.8797 72.0196 44.3809C70.2709 41.7996 69.3966 38.8435 69.3966 35.5128C69.3966 31.0163 70.9995 25.812 74.2054 19.8999C75.2879 17.8598 76.412 16.236 77.5778 15.0286C78.7852 13.8212 80.284 13.0926 82.0743 12.8428C82.2408 12.8012 82.4698 12.7804 82.7612 12.7804C83.4274 12.7804 84.0103 12.9053 84.5099 13.1551C85.7589 10.4072 86.7165 8.34632 87.3827 6.97239C87.6741 6.34787 88.3611 5.80662 89.4436 5.34864C90.5677 4.89067 91.6086 4.66168 92.5661 4.66168C93.8152 4.66168 94.4397 5.0572 94.4397 5.84826C94.4397 6.0148 94.3772 6.2646 94.2523 6.59768C91.3796 13.5923 89.048 19.0255 87.2578 22.8975C86.9663 23.5637 86.2794 24.1258 85.1969 24.5837C84.156 25.0417 83.136 25.2707 82.1367 25.2707C81.4706 25.2707 80.9293 25.1666 80.513 24.9585C80.0966 24.7503 79.8885 24.4172 79.8885 23.9592C79.8885 23.6678 79.9717 23.3555 80.1383 23.0225L81.075 20.8991C80.8669 20.8575 80.6795 20.7534 80.513 20.5868L79.264 23.5221C78.0982 26.0618 77.328 28.6015 76.9532 31.1412C76.8283 31.9322 76.7659 32.7441 76.7659 33.5768C76.7659 35.3671 77.0365 37.0532 77.5778 38.6354C78.119 40.2175 78.9725 41.4873 80.1383 42.4449C81.0959 43.2776 82.0326 43.6939 82.9486 43.6939C86.6124 43.6939 89.6726 37.3239 92.129 24.5837ZM124.31 43.1943C124.934 43.4025 125.246 43.7772 125.246 44.3185C125.246 44.9846 124.851 45.7132 124.06 46.5043C123.185 47.3786 122.061 47.8157 120.687 47.8157C120.021 47.8157 119.459 47.7325 119.001 47.5659C116.795 46.8582 114.796 46.5043 113.006 46.5043C109.883 46.5043 106.698 47.5035 103.451 49.5019C102.91 49.8766 102.243 50.1889 101.452 50.4387C100.703 50.6469 99.9951 50.751 99.329 50.751C98.7045 50.751 98.2048 50.6469 97.8301 50.4387C97.4554 50.1889 97.2681 49.8142 97.2681 49.3146C97.2681 49.0231 97.3097 48.7733 97.393 48.5652C98.6004 45.1928 99.558 42.1535 100.266 39.4472C101.015 36.741 101.515 33.9931 101.765 31.2036C102.139 27.4565 102.327 24.7086 102.327 22.96C102.327 18.3386 101.432 14.7997 99.6412 12.3432C99.4331 12.0934 99.329 11.7603 99.329 11.344C99.329 10.5113 99.9119 9.74108 101.078 9.03329C102.243 8.28387 103.388 7.90916 104.512 7.90916C105.262 7.90916 105.803 8.0757 106.136 8.40877C106.677 8.61695 107.031 8.95002 107.198 9.408C108.239 12.1559 109.675 14.4874 111.507 16.4026C113.339 18.2761 115.504 19.2129 118.002 19.2129C118.46 19.2129 119.147 19.1296 120.063 18.9631C120.646 18.8798 121.021 18.8382 121.187 18.8382C121.895 18.8382 122.415 19.0047 122.748 19.3378C123.123 19.6292 123.31 20.0456 123.31 20.5868C123.31 21.1697 123.061 21.7526 122.561 22.3355C122.103 22.9184 121.478 23.3347 120.687 23.5845C118.98 24.1674 117.273 24.4588 115.566 24.4588C113.526 24.4588 111.569 24.0425 109.696 23.2098C109.613 25.5413 109.509 27.29 109.384 28.4557L108.947 32.3902C110.57 32.0988 112.194 31.8489 113.818 31.6408L114.692 31.5783C116.357 31.5783 117.19 32.1404 117.19 33.2645C117.19 34.0139 116.774 34.6801 115.941 35.263C115.108 35.8458 114.255 36.2206 113.381 36.3871C112.09 36.6369 110.32 36.9075 108.072 37.199C107.614 39.2391 107.115 41.1542 106.573 42.9445C109.321 41.9453 112.111 41.4457 114.942 41.4457C118.064 41.4457 121.187 42.0286 124.31 43.1943ZM146.552 22.5228C145.761 21.8567 144.387 20.9824 142.43 19.8999C140.515 18.7757 139.037 18.2137 137.996 18.2137C137.164 18.2137 136.747 18.63 136.747 19.4627C136.747 19.7542 136.851 20.2538 137.06 20.9615C137.351 21.9191 137.996 22.8351 138.996 23.7094C139.995 24.5421 141.306 25.5205 142.93 26.6446C144.262 27.5606 145.116 28.1851 145.49 28.5182C147.322 30.1003 148.78 31.4326 149.862 32.5151C150.945 33.556 151.923 34.805 152.797 36.2622C153.713 37.6778 154.171 39.135 154.171 40.6338C154.171 41.633 153.921 42.6739 153.422 43.7564C152.464 45.7132 150.882 47.212 148.676 48.2529C146.511 49.2938 144.2 49.8142 141.743 49.8142C140.911 49.8142 140.078 49.7517 139.245 49.6268C133.583 48.6692 128.358 44.9013 123.57 38.3231C123.32 37.9484 123.195 37.5737 123.195 37.199C123.195 36.283 123.799 35.4503 125.006 34.7009C126.255 33.9098 127.484 33.5143 128.691 33.5143C129.607 33.5143 130.273 33.7849 130.689 34.3262C133.271 37.8235 135.81 40.384 138.309 42.0077C140.598 43.5066 142.534 44.256 144.117 44.256C145.407 44.256 146.053 43.6939 146.053 42.5698C146.053 41.7788 145.74 40.8003 145.116 39.6346C144.491 38.5105 143.679 37.4488 142.68 36.4495C141.681 35.4503 140.411 34.3054 138.871 33.0147L137.184 31.5783C137.018 31.4118 136.248 30.8081 134.874 29.7672C133.75 28.9345 132.792 28.1643 132.001 27.4565C131.21 26.7487 130.544 25.9785 130.002 25.1458C129.295 24.0217 128.941 22.8559 128.941 21.6485C128.941 19.775 129.732 18.068 131.314 16.5275C132.938 14.9454 134.79 13.8629 136.872 13.28C138.204 12.9053 139.474 12.7179 140.682 12.7179C142.93 12.7179 145.095 13.2384 147.177 14.2792C149.3 15.3201 151.444 16.7565 153.609 18.5884C153.984 18.8798 154.171 19.2337 154.171 19.6501C154.171 20.4411 153.526 21.2114 152.235 21.9608C150.945 22.7102 149.675 23.0849 148.426 23.0849C147.593 23.0849 146.968 22.8975 146.552 22.5228ZM178.863 22.5228C178.072 21.8567 176.698 20.9824 174.741 19.8999C172.826 18.7757 171.348 18.2137 170.307 18.2137C169.474 18.2137 169.058 18.63 169.058 19.4627C169.058 19.7542 169.162 20.2538 169.37 20.9615C169.661 21.9191 170.307 22.8351 171.306 23.7094C172.305 24.5421 173.617 25.5205 175.24 26.6446C176.573 27.5606 177.426 28.1851 177.801 28.5182C179.633 30.1003 181.09 31.4326 182.173 32.5151C183.255 33.556 184.233 34.805 185.108 36.2622C186.024 37.6778 186.482 39.135 186.482 40.6338C186.482 41.633 186.232 42.6739 185.732 43.7564C184.775 45.7132 183.193 47.212 180.986 48.2529C178.821 49.2938 176.51 49.8142 174.054 49.8142C173.221 49.8142 172.388 49.7517 171.556 49.6268C165.893 48.6692 160.668 44.9013 155.88 38.3231C155.631 37.9484 155.506 37.5737 155.506 37.199C155.506 36.283 156.109 35.4503 157.317 34.7009C158.566 33.9098 159.794 33.5143 161.001 33.5143C161.917 33.5143 162.584 33.7849 163 34.3262C165.581 37.8235 168.121 40.384 170.619 42.0077C172.909 43.5066 174.845 44.256 176.427 44.256C177.718 44.256 178.363 43.6939 178.363 42.5698C178.363 41.7788 178.051 40.8003 177.426 39.6346C176.802 38.5105 175.99 37.4488 174.991 36.4495C173.991 35.4503 172.721 34.3054 171.181 33.0147L169.495 31.5783C169.328 31.4118 168.558 30.8081 167.184 29.7672C166.06 28.9345 165.102 28.1643 164.311 27.4565C163.52 26.7487 162.854 25.9785 162.313 25.1458C161.605 24.0217 161.251 22.8559 161.251 21.6485C161.251 19.775 162.042 18.068 163.624 16.5275C165.248 14.9454 167.101 13.8629 169.183 13.28C170.515 12.9053 171.785 12.7179 172.992 12.7179C175.24 12.7179 177.405 13.2384 179.487 14.2792C181.61 15.3201 183.755 16.7565 185.92 18.5884C186.294 18.8798 186.482 19.2337 186.482 19.6501C186.482 20.4411 185.836 21.2114 184.546 21.9608C183.255 22.7102 181.985 23.0849 180.736 23.0849C179.903 23.0849 179.279 22.8975 178.863 22.5228ZM206.302 36.4495C207.259 34.2013 207.738 31.8906 207.738 29.5174C207.738 27.6439 207.405 25.9369 206.739 24.3964C206.114 22.8143 205.115 21.5236 203.741 20.5244C202.825 19.8582 201.951 19.5252 201.118 19.5252C200.785 19.5252 200.369 19.6084 199.869 19.775C200.244 19.9415 200.431 20.2329 200.431 20.6493C200.431 20.8991 200.348 21.1905 200.181 21.5236C199.224 23.3555 198.474 25.354 197.933 27.519C197.392 29.6423 197.121 31.7865 197.121 33.9515C197.121 36.4495 197.496 38.8227 198.245 41.071C198.745 42.32 199.266 43.2984 199.807 44.0062C200.057 44.2976 200.306 44.5058 200.556 44.6307C201.764 43.798 202.846 42.6323 203.804 41.1334C204.803 39.6346 205.636 38.0733 206.302 36.4495ZM205.427 14.529C207.468 14.9454 209.216 15.8405 210.673 17.2145C212.131 18.5884 213.234 20.2538 213.983 22.2106C214.733 24.1258 215.107 26.1242 215.107 28.2059C215.107 30.6624 214.629 33.1812 213.671 35.7626C212.713 38.3439 211.402 40.7171 209.737 42.8821C208.071 45.0471 206.218 46.7541 204.178 48.0031C202.263 49.1689 200.39 49.7517 198.558 49.7517C196.726 49.7517 195.123 49.1897 193.749 48.0655C192.375 46.9414 191.376 45.3177 190.751 43.1943C190.044 41.0293 189.69 38.5937 189.69 35.8875C189.69 34.2637 189.815 32.6816 190.064 31.1412C189.773 31.2244 189.336 31.2661 188.753 31.2661C187.337 31.2661 186.629 30.7873 186.629 29.8297C186.629 29.4966 186.671 29.226 186.754 29.0178C188.17 25.0625 190.293 21.6277 193.124 18.7133C195.997 15.7572 199.286 14.2792 202.992 14.2792C203.533 14.2792 204.345 14.3625 205.427 14.529ZM219.327 16.2152C219.368 15.3825 219.972 14.6539 221.138 14.0294C222.304 13.3633 223.469 13.0302 224.635 13.0302C225.301 13.0302 225.843 13.1759 226.259 13.4674C226.675 13.7172 226.863 14.1335 226.821 14.7164L225.01 48.6276C224.968 49.5019 224.365 50.2722 223.199 50.9383C222.033 51.5628 220.867 51.8751 219.702 51.8751C218.161 51.8751 217.412 51.2714 217.453 50.064L219.327 16.2152ZM219.202 7.97161C219.119 8.55449 219.264 8.99166 219.639 9.2831C220.055 9.57454 220.597 9.72026 221.263 9.72026C222.387 9.72026 223.532 9.408 224.698 8.78348C225.863 8.15897 226.509 7.40955 226.634 6.53522C226.967 4.4535 227.196 2.89221 227.321 1.85135C227.487 0.810493 226.842 0.290062 225.385 0.290062C224.26 0.290062 223.095 0.602321 221.887 1.22684C220.68 1.85135 220.035 2.55914 219.951 3.35019L219.202 7.97161ZM240.446 27.5814C242.07 26.2908 243.381 25.1458 244.381 24.1466C245.422 23.1474 246.213 22.1481 246.754 21.1489C244.506 20.566 241.175 19.6084 236.762 18.2761L236.449 30.9538C237.698 29.9129 238.427 29.2884 238.635 29.0803L240.446 27.5814ZM250.501 36.3246C250.834 35.6585 251.542 35.0964 252.624 34.6385C253.707 34.1388 254.748 33.889 255.747 33.889C257.121 33.889 257.808 34.3262 257.808 35.2005C257.808 35.4503 257.745 35.7418 257.62 36.0748C255.913 40.0717 254.623 43.9437 253.748 47.6908C253.54 48.5235 252.937 49.2938 251.937 50.0015C251.521 50.5428 250.876 51.0008 250.001 51.3755C249.169 51.7502 248.336 51.9375 247.503 51.9375C246.795 51.9375 246.213 51.7918 245.755 51.5004C245.338 51.2089 245.109 50.751 245.068 50.1265C244.901 47.4202 244.006 44.943 242.382 42.6947C240.8 40.4465 238.76 38.9892 236.262 38.3231L235.95 47.3786C235.908 48.1696 235.242 48.8982 233.951 49.5644C232.702 50.2305 231.495 50.5636 230.329 50.5636C229.705 50.5636 229.205 50.4595 228.83 50.2514C228.455 50.0015 228.268 49.6268 228.268 49.1272L228.455 40.5089C227.914 40.1342 227.644 39.697 227.644 39.1974C227.644 38.6145 227.956 38.0525 228.58 37.5112C228.789 29.9338 229.038 22.3771 229.33 14.8413C229.371 13.967 229.954 13.2175 231.078 12.593C232.244 11.9269 233.41 11.5938 234.576 11.5938C235.45 11.5938 236.075 11.802 236.449 12.2183C240.987 13.4674 245.692 14.8413 250.563 16.3401C251.313 16.1736 251.833 16.0903 252.125 16.0903C252.832 16.0903 253.374 16.2569 253.748 16.5899C254.165 16.8814 254.373 17.3394 254.373 17.9639C254.373 19.6709 253.811 21.253 252.687 22.7102C251.563 24.1258 250.001 25.7079 248.003 27.4565L246.754 28.5806C244.755 30.5375 242.819 32.2653 240.946 33.7641C244.36 34.7217 247.108 36.6161 249.189 39.4472C249.356 39.0309 249.793 37.99 250.501 36.3246ZM283.836 43.1943C284.46 43.4025 284.773 43.7772 284.773 44.3185C284.773 44.9846 284.377 45.7132 283.586 46.5043C282.712 47.3786 281.588 47.8157 280.214 47.8157C279.548 47.8157 278.986 47.7325 278.528 47.5659C276.321 46.8582 274.322 46.5043 272.532 46.5043C269.41 46.5043 266.225 47.5035 262.977 49.5019C262.436 49.8766 261.77 50.1889 260.979 50.4387C260.229 50.6469 259.521 50.751 258.855 50.751C258.231 50.751 257.731 50.6469 257.356 50.4387C256.982 50.1889 256.794 49.8142 256.794 49.3146C256.794 49.0231 256.836 48.7733 256.919 48.5652C258.127 45.1928 259.084 42.1535 259.792 39.4472C260.541 36.741 261.041 33.9931 261.291 31.2036C261.666 27.4565 261.853 24.7086 261.853 22.96C261.853 18.3386 260.958 14.7997 259.168 12.3432C258.959 12.0934 258.855 11.7603 258.855 11.344C258.855 10.5113 259.438 9.74108 260.604 9.03329C261.77 8.28387 262.915 7.90916 264.039 7.90916C264.788 7.90916 265.329 8.0757 265.663 8.40877C266.204 8.61695 266.558 8.95002 266.724 9.408C267.765 12.1559 269.201 14.4874 271.033 16.4026C272.865 18.2761 275.03 19.2129 277.528 19.2129C277.986 19.2129 278.673 19.1296 279.589 18.9631C280.172 18.8798 280.547 18.8382 280.713 18.8382C281.421 18.8382 281.942 19.0047 282.275 19.3378C282.649 19.6292 282.837 20.0456 282.837 20.5868C282.837 21.1697 282.587 21.7526 282.087 22.3355C281.629 22.9184 281.005 23.3347 280.214 23.5845C278.507 24.1674 276.8 24.4588 275.093 24.4588C273.053 24.4588 271.096 24.0425 269.222 23.2098C269.139 25.5413 269.035 27.29 268.91 28.4557L268.473 32.3902C270.097 32.0988 271.72 31.8489 273.344 31.6408L274.218 31.5783C275.884 31.5783 276.716 32.1404 276.716 33.2645C276.716 34.0139 276.3 34.6801 275.467 35.263C274.635 35.8458 273.781 36.2206 272.907 36.3871C271.616 36.6369 269.847 36.9075 267.599 37.199C267.141 39.2391 266.641 41.1542 266.1 42.9445C268.848 41.9453 271.637 41.4457 274.468 41.4457C277.591 41.4457 280.713 42.0286 283.836 43.1943ZM306.078 22.5228C305.287 21.8567 303.913 20.9824 301.957 19.8999C300.041 18.7757 298.563 18.2137 297.523 18.2137C296.69 18.2137 296.274 18.63 296.274 19.4627C296.274 19.7542 296.378 20.2538 296.586 20.9615C296.877 21.9191 297.523 22.8351 298.522 23.7094C299.521 24.5421 300.833 25.5205 302.456 26.6446C303.789 27.5606 304.642 28.1851 305.017 28.5182C306.849 30.1003 308.306 31.4326 309.388 32.5151C310.471 33.556 311.449 34.805 312.324 36.2622C313.24 37.6778 313.698 39.135 313.698 40.6338C313.698 41.633 313.448 42.6739 312.948 43.7564C311.991 45.7132 310.408 47.212 308.202 48.2529C306.037 49.2938 303.726 49.8142 301.27 49.8142C300.437 49.8142 299.604 49.7517 298.772 49.6268C293.109 48.6692 287.884 44.9013 283.096 38.3231C282.846 37.9484 282.722 37.5737 282.722 37.199C282.722 36.283 283.325 35.4503 284.533 34.7009C285.782 33.9098 287.01 33.5143 288.217 33.5143C289.133 33.5143 289.799 33.7849 290.216 34.3262C292.797 37.8235 295.337 40.384 297.835 42.0077C300.125 43.5066 302.061 44.256 303.643 44.256C304.934 44.256 305.579 43.6939 305.579 42.5698C305.579 41.7788 305.267 40.8003 304.642 39.6346C304.018 38.5105 303.206 37.4488 302.206 36.4495C301.207 35.4503 299.937 34.3054 298.397 33.0147L296.711 31.5783C296.544 31.4118 295.774 30.8081 294.4 29.7672C293.276 28.9345 292.318 28.1643 291.527 27.4565C290.736 26.7487 290.07 25.9785 289.529 25.1458C288.821 24.0217 288.467 22.8559 288.467 21.6485C288.467 19.775 289.258 18.068 290.84 16.5275C292.464 14.9454 294.317 13.8629 296.398 13.28C297.731 12.9053 299.001 12.7179 300.208 12.7179C302.456 12.7179 304.621 13.2384 306.703 14.2792C308.826 15.3201 310.971 16.7565 313.135 18.5884C313.51 18.8798 313.698 19.2337 313.698 19.6501C313.698 20.4411 313.052 21.2114 311.762 21.9608C310.471 22.7102 309.201 23.0849 307.952 23.0849C307.119 23.0849 306.495 22.8975 306.078 22.5228Z" fill="#F2C8F9"/>
</svg>
