<svg width="77" height="75" viewBox="0 0 77 75" fill="none" xmlns="http://www.w3.org/2000/svg">
<path d="M36.9135 49.2992L36.9145 49.3L37.7388 50.0279C38.1736 50.4119 38.8264 50.4119 39.2612 50.0279L40.0855 49.3L40.0865 49.2992C42.6437 47.0015 44.7589 45.0185 46.4317 43.3503C48.105 41.6816 49.4408 40.1872 50.4372 38.8673C51.4332 37.5481 52.1368 36.347 52.5423 35.2648C52.9471 34.1846 53.15 33.0908 53.15 31.9843C53.15 29.814 52.404 27.9943 50.9117 26.536C49.42 25.0782 47.5753 24.35 45.3875 24.35C44.0584 24.35 42.8137 24.6573 41.6559 25.272C40.5439 25.8624 39.4942 26.7665 38.5055 27.9785C37.6493 26.8333 36.6505 25.948 35.5086 25.326C34.3138 24.6751 33.0142 24.35 31.6125 24.35C29.4247 24.35 27.58 25.0782 26.0883 26.536C24.596 27.9943 23.85 29.814 23.85 31.9843C23.85 33.0908 24.0529 34.1846 24.4577 35.2648C24.8632 36.347 25.5668 37.5481 26.5628 38.8673C27.5592 40.1872 28.895 41.6816 30.5683 43.3503C32.2411 45.0185 34.3563 47.0015 36.9135 49.2992ZM44.4341 41.934C42.8781 43.4827 40.9002 45.3366 38.5001 47.496C36.1291 45.3599 34.1583 43.5234 32.5874 41.9862C30.9952 40.4282 29.7375 39.056 28.8127 37.8689C27.887 36.6808 27.2435 35.6292 26.8761 34.7129C26.5079 33.7948 26.325 32.8893 26.325 31.9955C26.325 30.4631 26.8194 29.2163 27.803 28.2423C28.7867 27.2684 30.0494 26.7782 31.6043 26.7782C32.8168 26.7782 33.939 27.1459 34.9745 27.8854C35.7963 28.4722 36.4869 29.2342 37.0461 30.1741C37.3475 30.6807 37.8804 31.0347 38.4857 31.0347C39.0866 31.0347 39.6171 30.686 39.9181 30.1835C40.4949 29.2205 41.1973 28.4497 42.0246 27.8683C43.0601 27.1404 44.1827 26.7782 45.3957 26.7782C46.9506 26.7782 48.2133 27.2684 49.197 28.2423C50.1807 29.2163 50.675 30.4612 50.675 31.9895C50.675 32.8808 50.4921 33.7807 50.1241 34.69C49.7568 35.5975 49.1134 36.6389 48.1877 37.8152C47.2624 38.9911 46.0117 40.3639 44.4341 41.934Z" fill="#243208" stroke="#243208" stroke-width="0.3" stroke-linejoin="round"/>
<path d="M1 75V0H-1V75H1Z" fill="#E2D9DB" mask="url(#path-1-inside-1_301_3650)"/>
</svg>
