<svg width="270" height="52" viewBox="0 0 270 52" fill="none" xmlns="http://www.w3.org/2000/svg">
<path d="M34.9827 38.0108C35.1908 38.2606 35.6696 38.8019 36.4191 39.6346C37.2101 40.4673 37.8346 41.3208 38.2926 42.1951C38.7922 43.0278 39.042 43.8397 39.042 44.6307C39.042 45.6299 38.6673 46.5667 37.9179 47.441C37.0019 48.5652 35.8778 49.1272 34.5455 49.1272C33.9626 49.1272 33.3173 49.044 32.6095 48.8774C31.9017 48.7109 31.4437 48.6068 31.2356 48.5652C27.9465 47.899 24.1161 47.5659 19.7445 47.5659C16.3721 47.5659 12.7915 47.7325 9.0028 48.0655C8.66973 48.1072 8.19093 48.1488 7.56641 48.1905C6.9419 48.2321 6.37983 48.2529 5.88022 48.2529C4.38138 48.2529 3.17398 48.0239 2.25803 47.5659C1.3837 47.0663 0.946544 46.1712 0.946544 44.8805C0.946544 44.1311 1.09226 43.34 1.3837 42.5074C1.67515 41.633 2.11231 40.5922 2.69519 39.3848L3.25725 38.0733C3.88177 36.5328 4.56874 35.3671 5.31816 34.576C6.06758 33.7433 7.12925 33.327 8.50319 33.327C9.62732 33.327 10.5016 33.7017 11.1262 34.4511C11.7923 35.1589 12.1254 36.054 12.1254 37.1365C12.1254 37.8859 11.938 38.6354 11.5633 39.3848C14.1863 39.2182 17.1631 39.135 20.4939 39.135C22.4507 39.135 23.9287 39.1558 24.928 39.1974C21.0976 34.3678 18.2456 30.7248 16.3721 28.2684L12.0629 22.8351C11.3968 22.0024 10.8347 21.3571 10.3767 20.8991C8.83626 19.1088 7.6705 17.5892 6.87945 16.3401C6.08839 15.0495 5.69287 13.738 5.69287 12.4057C5.69287 11.1566 6.13003 10.1574 7.00435 9.408C7.92031 8.61695 8.98198 8.03406 10.1894 7.65935C11.4384 7.24301 12.9997 6.84748 14.8733 6.47277L17.4962 5.91071C20.7853 5.07802 24.1785 4.3286 27.6758 3.66245C27.9673 3.62082 28.5502 3.51673 29.4245 3.35019C30.84 2.97548 32.0891 2.78813 33.1716 2.78813C34.5455 2.78813 35.5864 3.16284 36.2942 3.91226C37.0436 4.70331 37.4183 5.51518 37.4183 6.34787C37.4183 7.13893 37.1685 7.92998 36.6689 8.72103C36.2109 9.51209 35.4615 10.5529 34.4206 11.8436C33.1716 13.3425 32.3805 14.4458 32.0474 15.1535C31.5062 16.3193 30.9233 17.2977 30.2988 18.0888C29.7159 18.8798 29.0498 19.2754 28.3004 19.2754C27.7591 19.2754 27.2179 19.0672 26.6766 18.6508C26.0937 18.1929 25.8023 17.5683 25.8023 16.7773C25.8023 16.1944 25.9272 15.5907 26.177 14.9662C26.4684 14.3 26.7391 13.6963 26.9889 13.1551C27.2803 12.6138 27.4677 12.2808 27.5509 12.1559C25.4276 12.5306 22.2842 13.2592 18.1207 14.3417C17.6211 14.5082 16.6011 14.7788 15.0606 15.1535L22.5548 23.7719C28.9665 31.0579 33.1091 35.8042 34.9827 38.0108ZM64.5877 14.1543C63.5884 21.7318 63.0888 28.8721 63.0888 35.5752C63.0888 38.8227 63.2137 42.1118 63.4635 45.4426C63.5468 45.6924 63.5884 45.9006 63.5884 46.0671C63.5884 46.192 63.5468 46.3794 63.4635 46.6292C63.4635 46.6708 63.4427 46.6916 63.4011 46.6916V46.8165C63.1513 47.5243 62.5684 48.1488 61.6524 48.6901C60.7365 49.1897 59.7581 49.4811 58.7172 49.5644C57.0518 49.7309 56.0526 49.2938 55.7195 48.2529C54.2623 44.3393 51.9516 38.9268 48.7874 32.0155L48.038 30.2668C47.7049 35.4711 47.4967 41.0293 47.4135 46.9414C47.4135 47.8157 46.8306 48.6068 45.6648 49.3146C44.4991 49.9807 43.3125 50.3138 42.1051 50.3138C41.3557 50.3138 40.752 50.1681 40.294 49.8766C39.836 49.5852 39.6278 49.1064 39.6695 48.4403C39.9193 37.1157 40.7311 26.3948 42.1051 16.2777L42.1675 16.0279C42.0843 15.1119 42.6463 14.2792 43.8537 13.5298C45.0611 12.7804 46.2685 12.4057 47.4759 12.4057C48.725 12.4057 49.4952 12.822 49.7866 13.6547C51.1189 17.2769 53.0966 21.94 55.7195 27.6439C55.9693 23.7302 56.4065 19.7541 57.031 15.7156C57.1559 14.8829 57.8221 14.1543 59.0295 13.5298C60.2369 12.8637 61.4234 12.5306 62.5892 12.5306C64.0881 12.5306 64.7542 13.0718 64.5877 14.1543ZM92.7587 43.1943C93.3832 43.4025 93.6955 43.7772 93.6955 44.3185C93.6955 44.9846 93.3 45.7132 92.5089 46.5043C91.6346 47.3786 90.5104 47.8157 89.1365 47.8157C88.4704 47.8157 87.9083 47.7325 87.4503 47.5659C85.2437 46.8582 83.2452 46.5043 81.455 46.5043C78.3324 46.5043 75.1474 47.5035 71.8999 49.5019C71.3586 49.8766 70.6925 50.1889 69.9014 50.4387C69.152 50.6469 68.4442 50.751 67.7781 50.751C67.1535 50.751 66.6539 50.6469 66.2792 50.4387C65.9045 50.1889 65.7172 49.8142 65.7172 49.3146C65.7172 49.0231 65.7588 48.7733 65.8421 48.5652C67.0495 45.1928 68.0071 42.1535 68.7148 39.4472C69.4643 36.741 69.9639 33.9931 70.2137 31.2036C70.5884 27.4565 70.7757 24.7086 70.7757 22.96C70.7757 18.3386 69.8806 14.7997 68.0903 12.3432C67.8821 12.0934 67.7781 11.7603 67.7781 11.344C67.7781 10.5113 68.3609 9.74108 69.5267 9.03329C70.6925 8.28387 71.8374 7.90916 72.9615 7.90916C73.711 7.90916 74.2522 8.0757 74.5853 8.40877C75.1265 8.61695 75.4804 8.95002 75.647 9.408C76.6878 12.1559 78.1242 14.4874 79.9561 16.4026C81.788 18.2761 83.953 19.2129 86.4511 19.2129C86.9091 19.2129 87.596 19.1296 88.512 18.9631C89.0949 18.8798 89.4696 18.8382 89.6361 18.8382C90.3439 18.8382 90.8643 19.0047 91.1974 19.3378C91.5721 19.6292 91.7595 20.0456 91.7595 20.5868C91.7595 21.1697 91.5097 21.7526 91.0101 22.3355C90.5521 22.9184 89.9276 23.3347 89.1365 23.5845C87.4295 24.1674 85.7225 24.4588 84.0155 24.4588C81.9754 24.4588 80.0186 24.0425 78.145 23.2098C78.0618 25.5413 77.9577 27.29 77.8328 28.4557L77.3956 32.3902C79.0194 32.0988 80.6431 31.8489 82.2668 31.6408L83.1412 31.5783C84.8065 31.5783 85.6392 32.1404 85.6392 33.2645C85.6392 34.0139 85.2229 34.6801 84.3902 35.263C83.5575 35.8458 82.704 36.2206 81.8297 36.3871C80.539 36.6369 78.7695 36.9075 76.5213 37.199C76.0633 39.2391 75.5637 41.1542 75.0224 42.9445C77.7703 41.9453 80.5598 41.4457 83.391 41.4457C86.5135 41.4457 89.6361 42.0286 92.7587 43.1943ZM108.401 30.8289L107.901 32.0779L112.273 35.7626L111.836 33.9515C111.544 32.7857 110.961 30.3085 110.087 26.5197L108.401 30.8289ZM115.52 12.593C116.103 16.2152 116.832 19.8999 117.706 23.647C118.622 27.3524 119.725 31.62 121.016 36.4495C122.224 41.0293 123.015 44.0686 123.389 45.5675C123.431 45.6924 123.452 45.8797 123.452 46.1295C123.452 47.1288 122.89 48.0031 121.766 48.7525C120.641 49.4603 119.476 49.8142 118.268 49.8142C117.269 49.8142 116.499 49.5436 115.958 49.0023C114.75 47.7117 113.48 46.4834 112.148 45.3177C110.816 44.1519 109.067 42.7155 106.902 41.0085L104.841 39.3223C103.093 43.0694 101.739 45.8381 100.782 47.6284C100.49 48.2529 99.7201 48.8358 98.4711 49.377C97.2637 49.8766 96.1396 50.1265 95.0987 50.1265C93.9329 50.1265 93.3501 49.7517 93.3501 49.0023C93.3501 48.7942 93.4125 48.5443 93.5374 48.2529C94.7864 45.172 96.2645 41.633 97.9715 37.6361L99.283 34.4511C98.2421 33.4102 97.7217 32.8898 97.7217 32.8898C97.4302 32.5984 97.2845 32.2653 97.2845 31.8906C97.2845 31.1828 97.7425 30.5166 98.6584 29.8921C99.5744 29.226 100.594 28.7888 101.719 28.5806C103.717 23.7927 105.591 18.9215 107.339 13.967C107.506 13.3841 108.026 12.8845 108.901 12.4681C109.816 12.0101 110.774 11.7187 111.773 11.5938C112.481 11.3856 113.085 11.2815 113.584 11.2815C114.75 11.2815 115.395 11.7187 115.52 12.593ZM145.19 24.5837C145.356 23.7511 145.981 23.0433 147.063 22.4604C148.187 21.8775 149.291 21.5861 150.373 21.5861C151.789 21.5861 152.413 22.1273 152.247 23.2098L151.997 24.6462C151.372 28.1851 150.727 31.1828 150.061 33.6392C149.436 36.054 148.458 38.4064 147.126 40.6963C145.835 42.9862 144.128 44.7972 142.005 46.1295C139.257 47.8782 136.447 48.7525 133.574 48.7525C131.867 48.7525 130.264 48.3986 128.765 47.6908C127.308 46.9831 126.08 45.8797 125.08 44.3809C123.332 41.7996 122.457 38.8435 122.457 35.5128C122.457 31.0163 124.06 25.812 127.266 19.8999C128.349 17.8598 129.473 16.236 130.639 15.0286C131.846 13.8212 133.345 13.0926 135.135 12.8428C135.302 12.8012 135.531 12.7804 135.822 12.7804C136.488 12.7804 137.071 12.9053 137.571 13.1551C138.82 10.4072 139.777 8.34632 140.443 6.97239C140.735 6.34787 141.422 5.80662 142.504 5.34864C143.628 4.89067 144.669 4.66168 145.627 4.66168C146.876 4.66168 147.5 5.0572 147.5 5.84826C147.5 6.0148 147.438 6.2646 147.313 6.59768C144.44 13.5923 142.109 19.0255 140.319 22.8975C140.027 23.5637 139.34 24.1258 138.258 24.5837C137.217 25.0417 136.197 25.2707 135.198 25.2707C134.531 25.2707 133.99 25.1666 133.574 24.9585C133.157 24.7503 132.949 24.4172 132.949 23.9592C132.949 23.6678 133.033 23.3555 133.199 23.0225L134.136 20.8991C133.928 20.8575 133.74 20.7534 133.574 20.5868L132.325 23.5221C131.159 26.0618 130.389 28.6015 130.014 31.1412C129.889 31.9322 129.827 32.7441 129.827 33.5768C129.827 35.3671 130.097 37.0532 130.639 38.6354C131.18 40.2175 132.033 41.4873 133.199 42.4449C134.157 43.2776 135.093 43.6939 136.009 43.6939C139.673 43.6939 142.733 37.3239 145.19 24.5837ZM178.276 35.5752C178.984 40.7795 179.505 44.4225 179.838 46.5043C180.004 47.5451 179.546 48.4611 178.464 49.2521C177.381 50.0432 176.236 50.4387 175.029 50.4387C174.321 50.4387 173.738 50.293 173.28 50.0015C172.822 49.6685 172.552 49.1689 172.468 48.5027L171.969 44.4434C171.386 39.8636 170.907 36.4287 170.532 34.1388C170.324 32.8065 170.033 31.7032 169.658 30.8289C169.283 29.9129 168.68 29.226 167.847 28.768C167.306 28.5182 166.681 28.3933 165.973 28.3933C165.099 28.3933 164.121 28.539 163.038 28.8305C162.289 35.0756 161.061 41.4665 159.354 48.0031C159.145 48.8774 158.396 49.6477 157.105 50.3138C155.856 50.9383 154.649 51.2506 153.483 51.2506C152.734 51.2506 152.172 51.1257 151.797 50.8759C151.422 50.5844 151.318 50.1473 151.485 49.5644C153.317 42.9862 154.628 36.4079 155.419 29.8297C154.586 29.8297 153.858 29.684 153.233 29.3925C152.609 29.0594 152.297 28.6431 152.297 28.1435C152.297 27.5606 152.713 26.9777 153.546 26.3948L155.981 24.6462C156.314 20.9407 156.481 16.7357 156.481 12.031C156.481 9.36636 156.418 6.70176 156.293 4.03716C156.252 3.20447 156.793 2.45505 157.917 1.7889C159.041 1.12275 160.207 0.789676 161.414 0.789676C162.081 0.789676 162.622 0.935397 163.038 1.22684C163.496 1.47664 163.746 1.89299 163.788 2.47587C163.954 5.30701 164.037 8.45041 164.037 11.9061C164.037 14.9037 163.996 17.1312 163.913 18.5884C165.411 17.2561 166.869 15.8613 168.284 14.4041L170.158 12.593C170.741 12.0518 171.407 11.6146 172.156 11.2815C172.906 10.9068 173.655 10.7195 174.404 10.7195C174.862 10.7195 175.362 10.8444 175.903 11.0942C176.445 11.3024 176.715 11.6146 176.715 12.031C176.715 12.2808 176.632 12.5098 176.465 12.7179C173.926 16.2985 170.22 19.9831 165.349 23.7719C166.723 23.4804 167.951 23.3347 169.034 23.3347C172.073 23.3347 174.342 24.3339 175.841 26.3324C176.507 27.2067 176.965 28.1643 177.215 29.2052C177.506 30.2044 177.714 31.2036 177.839 32.2028C177.964 33.2021 178.047 33.889 178.089 34.2637L178.276 35.5752ZM208.095 43.1943C208.72 43.4025 209.032 43.7772 209.032 44.3185C209.032 44.9846 208.636 45.7132 207.845 46.5043C206.971 47.3786 205.847 47.8157 204.473 47.8157C203.807 47.8157 203.245 47.7325 202.787 47.5659C200.58 46.8582 198.582 46.5043 196.791 46.5043C193.669 46.5043 190.484 47.5035 187.236 49.5019C186.695 49.8766 186.029 50.1889 185.238 50.4387C184.488 50.6469 183.781 50.751 183.114 50.751C182.49 50.751 181.99 50.6469 181.616 50.4387C181.241 50.1889 181.054 49.8142 181.054 49.3146C181.054 49.0231 181.095 48.7733 181.178 48.5652C182.386 45.1928 183.343 42.1535 184.051 39.4472C184.801 36.741 185.3 33.9931 185.55 31.2036C185.925 27.4565 186.112 24.7086 186.112 22.96C186.112 18.3386 185.217 14.7997 183.427 12.3432C183.219 12.0934 183.114 11.7603 183.114 11.344C183.114 10.5113 183.697 9.74108 184.863 9.03329C186.029 8.28387 187.174 7.90916 188.298 7.90916C189.047 7.90916 189.589 8.0757 189.922 8.40877C190.463 8.61695 190.817 8.95002 190.983 9.408C192.024 12.1559 193.461 14.4874 195.293 16.4026C197.124 18.2761 199.289 19.2129 201.788 19.2129C202.245 19.2129 202.932 19.1296 203.848 18.9631C204.431 18.8798 204.806 18.8382 204.973 18.8382C205.68 18.8382 206.201 19.0047 206.534 19.3378C206.909 19.6292 207.096 20.0456 207.096 20.5868C207.096 21.1697 206.846 21.7526 206.346 22.3355C205.889 22.9184 205.264 23.3347 204.473 23.5845C202.766 24.1674 201.059 24.4588 199.352 24.4588C197.312 24.4588 195.355 24.0425 193.481 23.2098C193.398 25.5413 193.294 27.29 193.169 28.4557L192.732 32.3902C194.356 32.0988 195.98 31.8489 197.603 31.6408L198.478 31.5783C200.143 31.5783 200.976 32.1404 200.976 33.2645C200.976 34.0139 200.559 34.6801 199.727 35.263C198.894 35.8458 198.04 36.2206 197.166 36.3871C195.875 36.6369 194.106 36.9075 191.858 37.199C191.4 39.2391 190.9 41.1542 190.359 42.9445C193.107 41.9453 195.896 41.4457 198.727 41.4457C201.85 41.4457 204.973 42.0286 208.095 43.1943ZM222.801 27.5814C224.424 26.2908 225.736 25.1458 226.735 24.1466C227.776 23.1474 228.567 22.1481 229.108 21.1489C226.86 20.566 223.529 19.6084 219.116 18.2761L218.804 30.9538C220.053 29.9129 220.781 29.2884 220.989 29.0803L222.801 27.5814ZM232.855 36.3246C233.188 35.6585 233.896 35.0964 234.979 34.6385C236.061 34.1388 237.102 33.889 238.101 33.889C239.475 33.889 240.162 34.3262 240.162 35.2005C240.162 35.4503 240.1 35.7418 239.975 36.0748C238.268 40.0717 236.977 43.9437 236.103 47.6908C235.895 48.5235 235.291 49.2938 234.292 50.0015C233.875 50.5428 233.23 51.0008 232.356 51.3755C231.523 51.7502 230.69 51.9375 229.858 51.9375C229.15 51.9375 228.567 51.7918 228.109 51.5004C227.693 51.2089 227.464 50.751 227.422 50.1265C227.255 47.4202 226.36 44.943 224.737 42.6947C223.154 40.4465 221.114 38.9892 218.616 38.3231L218.304 47.3786C218.262 48.1696 217.596 48.8982 216.306 49.5644C215.057 50.2305 213.849 50.5636 212.683 50.5636C212.059 50.5636 211.559 50.4595 211.185 50.2514C210.81 50.0015 210.622 49.6268 210.622 49.1272L210.81 40.5089C210.269 40.1342 209.998 39.697 209.998 39.1974C209.998 38.6145 210.31 38.0525 210.935 37.5112C211.143 29.9338 211.393 22.3771 211.684 14.8413C211.726 13.967 212.309 13.2175 213.433 12.593C214.599 11.9269 215.764 11.5938 216.93 11.5938C217.804 11.5938 218.429 11.802 218.804 12.2183C223.342 13.4674 228.046 14.8413 232.918 16.3401C233.667 16.1736 234.188 16.0903 234.479 16.0903C235.187 16.0903 235.728 16.2569 236.103 16.5899C236.519 16.8814 236.727 17.3394 236.727 17.9639C236.727 19.6709 236.165 21.253 235.041 22.7102C233.917 24.1258 232.356 25.7079 230.357 27.4565L229.108 28.5806C227.11 30.5375 225.174 32.2653 223.3 33.7641C226.714 34.7217 229.462 36.6161 231.544 39.4472C231.71 39.0309 232.147 37.99 232.855 36.3246ZM262.099 22.5228C261.308 21.8567 259.934 20.9824 257.977 19.8999C256.062 18.7757 254.584 18.2137 253.543 18.2137C252.711 18.2137 252.294 18.63 252.294 19.4627C252.294 19.7542 252.398 20.2538 252.607 20.9615C252.898 21.9191 253.543 22.8351 254.543 23.7094C255.542 24.5421 256.853 25.5205 258.477 26.6446C259.809 27.5606 260.663 28.1851 261.038 28.5182C262.869 30.1003 264.327 31.4326 265.409 32.5151C266.492 33.556 267.47 34.805 268.344 36.2622C269.26 37.6778 269.718 39.135 269.718 40.6338C269.718 41.633 269.468 42.6739 268.969 43.7564C268.011 45.7132 266.429 47.212 264.223 48.2529C262.058 49.2938 259.747 49.8142 257.29 49.8142C256.458 49.8142 255.625 49.7517 254.792 49.6268C249.13 48.6692 243.905 44.9013 239.117 38.3231C238.867 37.9484 238.742 37.5737 238.742 37.199C238.742 36.283 239.346 35.4503 240.553 34.7009C241.802 33.9098 243.031 33.5143 244.238 33.5143C245.154 33.5143 245.82 33.7849 246.236 34.3262C248.818 37.8235 251.358 40.384 253.856 42.0077C256.145 43.5066 258.081 44.256 259.664 44.256C260.954 44.256 261.6 43.6939 261.6 42.5698C261.6 41.7788 261.287 40.8003 260.663 39.6346C260.038 38.5105 259.226 37.4488 258.227 36.4495C257.228 35.4503 255.958 34.3054 254.418 33.0147L252.731 31.5783C252.565 31.4118 251.795 30.8081 250.421 29.7672C249.297 28.9345 248.339 28.1643 247.548 27.4565C246.757 26.7487 246.091 25.9785 245.55 25.1458C244.842 24.0217 244.488 22.8559 244.488 21.6485C244.488 19.775 245.279 18.068 246.861 16.5275C248.485 14.9454 250.337 13.8629 252.419 13.28C253.751 12.9053 255.021 12.7179 256.229 12.7179C258.477 12.7179 260.642 13.2384 262.724 14.2792C264.847 15.3201 266.991 16.7565 269.156 18.5884C269.531 18.8798 269.718 19.2337 269.718 19.6501C269.718 20.4411 269.073 21.2114 267.782 21.9608C266.492 22.7102 265.222 23.0849 263.973 23.0849C263.14 23.0849 262.516 22.8975 262.099 22.5228Z" fill="#F2C8F9"/>
</svg>
