<svg width="306" height="54" viewBox="0 0 306 54" fill="none" xmlns="http://www.w3.org/2000/svg">
<path d="M34.9739 38.0108C35.1821 38.2606 35.6609 38.8019 36.4103 39.6346C37.2014 40.4673 37.8259 41.3208 38.2839 42.1951C38.7835 43.0278 39.0333 43.8397 39.0333 44.6307C39.0333 45.6299 38.6586 46.5667 37.9091 47.441C36.9932 48.5652 35.8691 49.1272 34.5368 49.1272C33.9539 49.1272 33.3085 49.044 32.6008 48.8774C31.893 48.7109 31.435 48.6068 31.2268 48.5652C27.9377 47.899 24.1073 47.5659 19.7357 47.5659C16.3633 47.5659 12.7828 47.7325 8.99404 48.0655C8.66097 48.1072 8.18217 48.1488 7.55766 48.1905C6.93314 48.2321 6.37108 48.2529 5.87146 48.2529C4.37262 48.2529 3.16523 48.0239 2.24927 47.5659C1.37495 47.0663 0.937785 46.1712 0.937785 44.8805C0.937785 44.1311 1.08351 43.34 1.37495 42.5074C1.66639 41.633 2.10355 40.5922 2.68643 39.3848L3.24849 38.0733C3.87301 36.5328 4.55998 35.3671 5.3094 34.576C6.05882 33.7433 7.12049 33.327 8.49443 33.327C9.61856 33.327 10.4929 33.7017 11.1174 34.4511C11.7835 35.1589 12.1166 36.054 12.1166 37.1365C12.1166 37.8859 11.9293 38.6354 11.5546 39.3848C14.1775 39.2182 17.1544 39.135 20.4851 39.135C22.442 39.135 23.92 39.1558 24.9192 39.1974C21.0888 34.3678 18.2369 30.7248 16.3633 28.2684L12.0542 22.8351C11.388 22.0024 10.826 21.3571 10.368 20.8991C8.82751 19.1088 7.66174 17.5892 6.87069 16.3401C6.07963 15.0495 5.68411 13.738 5.68411 12.4057C5.68411 11.1566 6.12127 10.1574 6.99559 9.408C7.91155 8.61695 8.97323 8.03406 10.1806 7.65935C11.4297 7.24301 12.9909 6.84748 14.8645 6.47277L17.4875 5.91071C20.7766 5.07802 24.1698 4.3286 27.6671 3.66245C27.9585 3.62082 28.5414 3.51673 29.4157 3.35019C30.8313 2.97548 32.0803 2.78813 33.1628 2.78813C34.5368 2.78813 35.5776 3.16284 36.2854 3.91226C37.0348 4.70331 37.4095 5.51518 37.4095 6.34787C37.4095 7.13893 37.1597 7.92998 36.6601 8.72103C36.2021 9.51209 35.4527 10.5529 34.4118 11.8436C33.1628 13.3425 32.3718 14.4458 32.0387 15.1535C31.4974 16.3193 30.9146 17.2977 30.29 18.0888C29.7072 18.8798 29.041 19.2754 28.2916 19.2754C27.7503 19.2754 27.2091 19.0672 26.6679 18.6508C26.085 18.1929 25.7935 17.5683 25.7935 16.7773C25.7935 16.1944 25.9184 15.5907 26.1682 14.9662C26.4597 14.3 26.7303 13.6963 26.9801 13.1551C27.2715 12.6138 27.4589 12.2808 27.5422 12.1559C25.4188 12.5306 22.2754 13.2592 18.112 14.3417C17.6124 14.5082 16.5923 14.7788 15.0519 15.1535L22.546 23.7719C28.9577 31.0579 33.1004 35.8042 34.9739 38.0108ZM70.262 11.9061C70.3869 11.115 71.0739 10.7195 72.3229 10.7195C73.1556 10.7195 74.0507 10.9068 75.0083 11.2815C75.9659 11.6563 76.757 12.1767 77.3815 12.8428C78.006 13.4674 78.2558 14.1127 78.1309 14.7788C76.2157 27.8104 72.7809 39.8844 67.8264 51.0008C67.4933 51.7502 66.7647 52.1249 65.6406 52.1249C64.9328 52.1249 64.1001 51.9792 63.1425 51.6877C60.6028 50.8967 58.8542 49.3978 57.8966 47.1912C56.9806 44.943 56.4186 42.1951 56.2104 38.9476L56.0855 37.3863C54.5866 40.5505 52.4633 45.3801 49.7154 51.8751C49.3407 52.7078 48.5705 53.1241 47.4047 53.1241C46.572 53.1241 45.6977 52.916 44.7817 52.4996C43.8658 52.0833 43.1164 51.5628 42.5335 50.9383C41.9922 50.3138 41.7632 49.6685 41.8465 49.0023C42.3878 45.4218 42.6584 41.2375 42.6584 36.4495C42.6584 34.2429 42.5751 30.9746 42.4086 26.6446C42.242 22.3147 42.1588 19.088 42.1588 16.9646L42.2212 14.0919C42.2629 13.509 42.4919 13.0718 42.9082 12.7804C43.3662 12.4889 43.9491 12.3432 44.6568 12.3432C45.9059 12.3432 47.1549 12.6971 48.4039 13.4049C49.653 14.0711 50.2567 14.8413 50.215 15.7156L50.1526 19.0255C50.1526 21.482 50.2359 25.1666 50.4024 30.0795C52.1927 26.4157 54.1495 22.8143 56.2728 19.2754C56.7308 18.5259 57.5843 18.1512 58.8334 18.1512C60.0408 18.1512 61.2065 18.4843 62.3306 19.1505C63.4964 19.8166 64.1001 20.6077 64.1417 21.5236C64.1834 22.1481 64.2042 23.1057 64.2042 24.3964C64.2042 25.5205 64.1626 27.2067 64.0793 29.455C63.996 32.2445 63.9752 34.3262 64.0168 35.7001V37.761C66.9312 29.2676 69.013 20.6493 70.262 11.9061ZM104.46 43.1943C105.084 43.4025 105.396 43.7772 105.396 44.3185C105.396 44.9846 105.001 45.7132 104.21 46.5043C103.336 47.3786 102.211 47.8157 100.837 47.8157C100.171 47.8157 99.6092 47.7325 99.1512 47.5659C96.9446 46.8582 94.9462 46.5043 93.1559 46.5043C90.0333 46.5043 86.8483 47.5035 83.6008 49.5019C83.0595 49.8766 82.3934 50.1889 81.6023 50.4387C80.8529 50.6469 80.1451 50.751 79.479 50.751C78.8545 50.751 78.3549 50.6469 77.9801 50.4387C77.6054 50.1889 77.4181 49.8142 77.4181 49.3146C77.4181 49.0231 77.4597 48.7733 77.543 48.5652C78.7504 45.1928 79.708 42.1535 80.4158 39.4472C81.1652 36.741 81.6648 33.9931 81.9146 31.2036C82.2893 27.4565 82.4767 24.7086 82.4767 22.96C82.4767 18.3386 81.5815 14.7997 79.7912 12.3432C79.5831 12.0934 79.479 11.7603 79.479 11.344C79.479 10.5113 80.0619 9.74108 81.2276 9.03329C82.3934 8.28387 83.5383 7.90916 84.6625 7.90916C85.4119 7.90916 85.9531 8.0757 86.2862 8.40877C86.8275 8.61695 87.1814 8.95002 87.3479 9.408C88.3887 12.1559 89.8251 14.4874 91.6571 16.4026C93.489 18.2761 95.654 19.2129 98.152 19.2129C98.61 19.2129 99.297 19.1296 100.213 18.9631C100.796 18.8798 101.171 18.8382 101.337 18.8382C102.045 18.8382 102.565 19.0047 102.898 19.3378C103.273 19.6292 103.46 20.0456 103.46 20.5868C103.46 21.1697 103.211 21.7526 102.711 22.3355C102.253 22.9184 101.628 23.3347 100.837 23.5845C99.1304 24.1674 97.4234 24.4588 95.7164 24.4588C93.6763 24.4588 91.7195 24.0425 89.846 23.2098C89.7627 25.5413 89.6586 27.29 89.5337 28.4557L89.0965 32.3902C90.7203 32.0988 92.344 31.8489 93.9678 31.6408L94.8421 31.5783C96.5075 31.5783 97.3401 32.1404 97.3401 33.2645C97.3401 34.0139 96.9238 34.6801 96.0911 35.263C95.2584 35.8458 94.4049 36.2206 93.5306 36.3871C92.2399 36.6369 90.4705 36.9075 88.2222 37.199C87.7642 39.2391 87.2646 41.1542 86.7234 42.9445C89.4712 41.9453 92.2607 41.4457 95.0919 41.4457C98.2145 41.4457 101.337 42.0286 104.46 43.1943ZM120.102 30.8289L119.602 32.0779L123.974 35.7626L123.537 33.9515C123.245 32.7857 122.662 30.3085 121.788 26.5197L120.102 30.8289ZM127.221 12.593C127.804 16.2152 128.533 19.8999 129.407 23.647C130.323 27.3524 131.426 31.62 132.717 36.4495C133.924 41.0293 134.715 44.0686 135.09 45.5675C135.132 45.6924 135.153 45.8797 135.153 46.1295C135.153 47.1288 134.591 48.0031 133.466 48.7525C132.342 49.4603 131.177 49.8142 129.969 49.8142C128.97 49.8142 128.2 49.5436 127.658 49.0023C126.451 47.7117 125.181 46.4834 123.849 45.3177C122.517 44.1519 120.768 42.7155 118.603 41.0085L116.542 39.3223C114.793 43.0694 113.44 45.8381 112.483 47.6284C112.191 48.2529 111.421 48.8358 110.172 49.377C108.965 49.8766 107.84 50.1265 106.8 50.1265C105.634 50.1265 105.051 49.7517 105.051 49.0023C105.051 48.7942 105.113 48.5443 105.238 48.2529C106.487 45.172 107.965 41.633 109.672 37.6361L110.984 34.4511C109.943 33.4102 109.423 32.8898 109.423 32.8898C109.131 32.5984 108.985 32.2653 108.985 31.8906C108.985 31.1828 109.443 30.5166 110.359 29.8921C111.275 29.226 112.295 28.7888 113.419 28.5806C115.418 23.7927 117.291 18.9215 119.04 13.967C119.207 13.3841 119.727 12.8845 120.601 12.4681C121.517 12.0101 122.475 11.7187 123.474 11.5938C124.182 11.3856 124.786 11.2815 125.285 11.2815C126.451 11.2815 127.096 11.7187 127.221 12.593ZM152.392 12.593C153.266 12.5098 153.932 12.6138 154.39 12.9053C154.89 13.1967 155.41 13.7588 155.951 14.5915C156.285 15.1327 156.451 15.5907 156.451 15.9654C156.451 16.8814 155.868 17.4226 154.702 17.5892L152.517 17.839C150.477 18.1304 149.394 18.2761 149.269 18.2761C148.561 24.9376 147.999 30.7248 147.583 35.6377C147.167 40.5505 146.896 45.4009 146.771 50.1889C146.729 50.7718 146.48 51.2089 146.022 51.5004C145.605 51.7918 145.043 51.9375 144.335 51.9375C143.086 51.9375 141.837 51.6045 140.588 50.9383C139.381 50.2305 138.798 49.4395 138.84 48.5652C138.965 44.1519 139.214 39.6554 139.589 35.0756C139.964 30.4542 140.463 25.1042 141.088 19.0255L137.154 19.5252C136.571 19.5668 136.113 19.546 135.78 19.4627C135.488 19.3378 135.197 19.088 134.905 18.7133C134.614 18.3386 134.322 17.9222 134.031 17.4643C133.698 17.0063 133.531 16.5483 133.531 16.0903C133.531 15.7156 133.677 15.3825 133.969 15.0911C134.26 14.7997 134.697 14.6123 135.28 14.529C136.196 14.4041 137.258 14.2584 138.465 14.0919L141.65 13.6547L142.774 2.85058C142.899 1.68482 143.753 1.10193 145.335 1.10193C146.584 1.10193 147.791 1.45583 148.957 2.16361C150.164 2.82976 150.726 3.6 150.643 4.47432L149.831 12.8428C150.997 12.7596 151.85 12.6763 152.392 12.593ZM178.881 22.5228C178.09 21.8567 176.716 20.9824 174.76 19.8999C172.844 18.7757 171.366 18.2137 170.326 18.2137C169.493 18.2137 169.077 18.63 169.077 19.4627C169.077 19.7542 169.181 20.2538 169.389 20.9615C169.68 21.9191 170.326 22.8351 171.325 23.7094C172.324 24.5421 173.636 25.5205 175.259 26.6446C176.592 27.5606 177.445 28.1851 177.82 28.5182C179.652 30.1003 181.109 31.4326 182.191 32.5151C183.274 33.556 184.252 34.805 185.127 36.2622C186.043 37.6778 186.501 39.135 186.501 40.6338C186.501 41.633 186.251 42.6739 185.751 43.7564C184.794 45.7132 183.211 47.212 181.005 48.2529C178.84 49.2938 176.529 49.8142 174.073 49.8142C173.24 49.8142 172.407 49.7517 171.575 49.6268C165.912 48.6692 160.687 44.9013 155.899 38.3231C155.649 37.9484 155.525 37.5737 155.525 37.199C155.525 36.283 156.128 35.4503 157.336 34.7009C158.585 33.9098 159.813 33.5143 161.02 33.5143C161.936 33.5143 162.602 33.7849 163.019 34.3262C165.6 37.8235 168.14 40.384 170.638 42.0077C172.928 43.5066 174.864 44.256 176.446 44.256C177.737 44.256 178.382 43.6939 178.382 42.5698C178.382 41.7788 178.07 40.8003 177.445 39.6346C176.821 38.5105 176.009 37.4488 175.009 36.4495C174.01 35.4503 172.74 34.3054 171.2 33.0147L169.514 31.5783C169.347 31.4118 168.577 30.8081 167.203 29.7672C166.079 28.9345 165.121 28.1643 164.33 27.4565C163.539 26.7487 162.873 25.9785 162.332 25.1458C161.624 24.0217 161.27 22.8559 161.27 21.6485C161.27 19.775 162.061 18.068 163.643 16.5275C165.267 14.9454 167.12 13.8629 169.201 13.28C170.534 12.9053 171.804 12.7179 173.011 12.7179C175.259 12.7179 177.424 13.2384 179.506 14.2792C181.629 15.3201 183.773 16.7565 185.938 18.5884C186.313 18.8798 186.501 19.2337 186.501 19.6501C186.501 20.4411 185.855 21.2114 184.565 21.9608C183.274 22.7102 182.004 23.0849 180.755 23.0849C179.922 23.0849 179.298 22.8975 178.881 22.5228ZM201.887 16.1528C201.887 15.2785 202.428 14.529 203.51 13.9045C204.593 13.28 205.717 12.9677 206.883 12.9677C207.59 12.9677 208.153 13.1135 208.569 13.4049C208.985 13.6547 209.173 14.0711 209.131 14.6539C209.048 18.2345 208.964 23.647 208.881 30.8914L208.569 47.1912C208.527 48.1072 207.944 48.8982 206.82 49.5644C205.738 50.2305 204.614 50.5636 203.448 50.5636C202.698 50.5636 202.095 50.4179 201.637 50.1265C201.22 49.7934 201.012 49.3146 201.012 48.6901L201.262 38.448C201.096 38.4896 200.846 38.5105 200.513 38.5105L199.264 38.448C198.972 38.4064 198.535 38.3855 197.952 38.3855C197.661 38.3855 197.307 38.4272 196.89 38.5105C196.682 42.6739 196.391 46.2128 196.016 49.1272C195.933 50.0015 195.288 50.7718 194.08 51.4379C192.914 52.1041 191.749 52.4372 190.583 52.4372C189.875 52.4372 189.313 52.2914 188.897 52C188.522 51.7086 188.355 51.2714 188.397 50.6885C189.022 44.943 189.417 39.697 189.584 34.9507L189.646 33.0772C189.771 29.455 189.833 27.061 189.833 25.8952C189.833 22.1481 189.604 19.8374 189.146 18.9631C188.48 19.0047 187.96 18.9006 187.585 18.6508C187.252 18.3594 187.086 18.0055 187.086 17.5892C187.086 17.1728 187.252 16.7357 187.585 16.2777C187.918 15.8197 188.335 15.445 188.834 15.1535C190.416 14.2792 191.769 13.8421 192.894 13.8421C193.809 13.8421 194.621 14.1335 195.329 14.7164C196.412 15.6323 196.953 17.5475 196.953 20.4619L196.89 23.5845C197.015 25.7079 197.078 27.852 197.078 30.017L197.015 33.7017C197.265 33.6184 197.661 33.6184 198.202 33.7017C198.743 33.7849 199.16 33.8266 199.451 33.8266C199.742 33.8266 200.075 33.8058 200.45 33.7641C200.825 33.6809 201.158 33.6184 201.449 33.5768L201.887 16.1528ZM214.65 16.2152C214.691 15.3825 215.295 14.6539 216.461 14.0294C217.626 13.3633 218.792 13.0302 219.958 13.0302C220.624 13.0302 221.165 13.1759 221.582 13.4674C221.998 13.7172 222.185 14.1335 222.144 14.7164L220.333 48.6276C220.291 49.5019 219.687 50.2722 218.522 50.9383C217.356 51.5628 216.19 51.8751 215.024 51.8751C213.484 51.8751 212.734 51.2714 212.776 50.064L214.65 16.2152ZM214.525 7.97161C214.441 8.55449 214.587 8.99166 214.962 9.2831C215.378 9.57454 215.919 9.72026 216.586 9.72026C217.71 9.72026 218.855 9.408 220.02 8.78348C221.186 8.15897 221.832 7.40955 221.956 6.53522C222.29 4.4535 222.519 2.89221 222.643 1.85135C222.81 0.810493 222.165 0.290062 220.707 0.290062C219.583 0.290062 218.418 0.602321 217.21 1.22684C216.003 1.85135 215.357 2.55914 215.274 3.35019L214.525 7.97161ZM235.769 27.5814C237.393 26.2908 238.704 25.1458 239.703 24.1466C240.744 23.1474 241.535 22.1481 242.077 21.1489C239.828 20.566 236.498 19.6084 232.084 18.2761L231.772 30.9538C233.021 29.9129 233.75 29.2884 233.958 29.0803L235.769 27.5814ZM245.824 36.3246C246.157 35.6585 246.865 35.0964 247.947 34.6385C249.03 34.1388 250.07 33.889 251.07 33.889C252.444 33.889 253.131 34.3262 253.131 35.2005C253.131 35.4503 253.068 35.7418 252.943 36.0748C251.236 40.0717 249.946 43.9437 249.071 47.6908C248.863 48.5235 248.259 49.2938 247.26 50.0015C246.844 50.5428 246.198 51.0008 245.324 51.3755C244.491 51.7502 243.659 51.9375 242.826 51.9375C242.118 51.9375 241.535 51.7918 241.077 51.5004C240.661 51.2089 240.432 50.751 240.39 50.1265C240.224 47.4202 239.329 44.943 237.705 42.6947C236.123 40.4465 234.083 38.9892 231.585 38.3231L231.273 47.3786C231.231 48.1696 230.565 48.8982 229.274 49.5644C228.025 50.2305 226.818 50.5636 225.652 50.5636C225.027 50.5636 224.528 50.4595 224.153 50.2514C223.778 50.0015 223.591 49.6268 223.591 49.1272L223.778 40.5089C223.237 40.1342 222.966 39.697 222.966 39.1974C222.966 38.6145 223.279 38.0525 223.903 37.5112C224.111 29.9338 224.361 22.3771 224.653 14.8413C224.694 13.967 225.277 13.2175 226.401 12.593C227.567 11.9269 228.733 11.5938 229.899 11.5938C230.773 11.5938 231.397 11.802 231.772 12.2183C236.31 13.4674 241.015 14.8413 245.886 16.3401C246.636 16.1736 247.156 16.0903 247.447 16.0903C248.155 16.0903 248.697 16.2569 249.071 16.5899C249.488 16.8814 249.696 17.3394 249.696 17.9639C249.696 19.6709 249.134 21.253 248.01 22.7102C246.885 24.1258 245.324 25.7079 243.326 27.4565L242.077 28.5806C240.078 30.5375 238.142 32.2653 236.269 33.7641C239.683 34.7217 242.431 36.6161 244.512 39.4472C244.679 39.0309 245.116 37.99 245.824 36.3246ZM271.618 12.593C272.493 12.5098 273.159 12.6138 273.617 12.9053C274.116 13.1967 274.637 13.7588 275.178 14.5915C275.511 15.1327 275.678 15.5907 275.678 15.9654C275.678 16.8814 275.095 17.4226 273.929 17.5892L271.743 17.839C269.703 18.1304 268.621 18.2761 268.496 18.2761C267.788 24.9376 267.226 30.7248 266.809 35.6377C266.393 40.5505 266.122 45.4009 265.998 50.1889C265.956 50.7718 265.706 51.2089 265.248 51.5004C264.832 51.7918 264.27 51.9375 263.562 51.9375C262.313 51.9375 261.064 51.6045 259.815 50.9383C258.607 50.2305 258.025 49.4395 258.066 48.5652C258.191 44.1519 258.441 39.6554 258.816 35.0756C259.19 30.4542 259.69 25.1042 260.314 19.0255L256.38 19.5252C255.797 19.5668 255.339 19.546 255.006 19.4627C254.715 19.3378 254.423 19.088 254.132 18.7133C253.84 18.3386 253.549 17.9222 253.257 17.4643C252.924 17.0063 252.758 16.5483 252.758 16.0903C252.758 15.7156 252.904 15.3825 253.195 15.0911C253.486 14.7997 253.924 14.6123 254.506 14.529C255.422 14.4041 256.484 14.2584 257.691 14.0919L260.877 13.6547L262.001 2.85058C262.126 1.68482 262.979 1.10193 264.561 1.10193C265.81 1.10193 267.018 1.45583 268.183 2.16361C269.391 2.82976 269.953 3.6 269.87 4.47432L269.058 12.8428C270.223 12.7596 271.077 12.6763 271.618 12.593ZM298.108 22.5228C297.317 21.8567 295.943 20.9824 293.986 19.8999C292.071 18.7757 290.593 18.2137 289.552 18.2137C288.719 18.2137 288.303 18.63 288.303 19.4627C288.303 19.7542 288.407 20.2538 288.615 20.9615C288.907 21.9191 289.552 22.8351 290.551 23.7094C291.55 24.5421 292.862 25.5205 294.486 26.6446C295.818 27.5606 296.672 28.1851 297.046 28.5182C298.878 30.1003 300.335 31.4326 301.418 32.5151C302.5 33.556 303.479 34.805 304.353 36.2622C305.269 37.6778 305.727 39.135 305.727 40.6338C305.727 41.633 305.477 42.6739 304.978 43.7564C304.02 45.7132 302.438 47.212 300.231 48.2529C298.066 49.2938 295.756 49.8142 293.299 49.8142C292.466 49.8142 291.634 49.7517 290.801 49.6268C285.139 48.6692 279.914 44.9013 275.126 38.3231C274.876 37.9484 274.751 37.5737 274.751 37.199C274.751 36.283 275.355 35.4503 276.562 34.7009C277.811 33.9098 279.039 33.5143 280.247 33.5143C281.163 33.5143 281.829 33.7849 282.245 34.3262C284.827 37.8235 287.366 40.384 289.864 42.0077C292.154 43.5066 294.09 44.256 295.672 44.256C296.963 44.256 297.608 43.6939 297.608 42.5698C297.608 41.7788 297.296 40.8003 296.672 39.6346C296.047 38.5105 295.235 37.4488 294.236 36.4495C293.237 35.4503 291.967 34.3054 290.426 33.0147L288.74 31.5783C288.574 31.4118 287.803 30.8081 286.429 29.7672C285.305 28.9345 284.348 28.1643 283.557 27.4565C282.766 26.7487 282.099 25.9785 281.558 25.1458C280.85 24.0217 280.497 22.8559 280.497 21.6485C280.497 19.775 281.288 18.068 282.87 16.5275C284.493 14.9454 286.346 13.8629 288.428 13.28C289.76 12.9053 291.03 12.7179 292.237 12.7179C294.486 12.7179 296.651 13.2384 298.732 14.2792C300.856 15.3201 303 16.7565 305.165 18.5884C305.54 18.8798 305.727 19.2337 305.727 19.6501C305.727 20.4411 305.082 21.2114 303.791 21.9608C302.5 22.7102 301.23 23.0849 299.981 23.0849C299.149 23.0849 298.524 22.8975 298.108 22.5228Z" fill="#F2C8F9"/>
</svg>
