<svg width="40" height="12" viewBox="0 0 40 12" fill="none" xmlns="http://www.w3.org/2000/svg">
<path fill-rule="evenodd" clip-rule="evenodd" d="M35.1663 9.98492C37.634 10.041 39.6798 8.08597 39.7359 5.61832C39.7919 3.15067 37.8369 1.10481 35.3693 1.04876C28.7182 0.897706 21.8626 0.770532 14.9499 1.31602C11.6486 1.57652 8.02014 1.89301 4.44485 2.67014C2.03288 3.19441 0.502597 5.5747 1.02686 7.98666C1.51076 10.2129 3.57584 11.688 5.78758 11.4897C9.7182 10.515 17.7231 8.90139 23.4367 9.0256C28.9122 9.14463 31.9909 9.60606 33.6578 9.85588C33.9635 9.90169 34.2217 9.94039 34.4384 9.96855C34.6807 9.97393 34.9234 9.9794 35.1663 9.98492Z" fill="#243208"></path>
</svg>
