<svg width="103" height="50" viewBox="0 0 103 50" fill="none" xmlns="http://www.w3.org/2000/svg">
<mask id="path-1-outside-1_301_890" maskUnits="userSpaceOnUse" x="0" y="0.868774" width="103" height="49" fill="black">
<rect fill="white" y="0.868774" width="103" height="49"></rect>
<path d="M20.0773 27.9047C20.0986 28.2026 20.1518 28.6495 20.2369 29.2454C20.3646 29.9689 20.4284 30.5009 20.4284 30.8414C20.4284 31.5011 20.2795 32.0756 19.9816 32.5651C19.7262 33.0119 19.3751 33.4375 18.9282 33.8419C18.4813 34.2675 18.0451 34.4803 17.6195 34.4803C16.6619 34.4803 16.1831 33.3631 16.1831 31.1286L16.215 29.6603C16.2788 27.7664 16.4916 25.8299 16.8534 23.8508C16.3852 23.8721 16.0979 23.936 15.9915 24.0424C15.8851 24.1488 15.8 24.3722 15.7362 24.7127C15.7362 24.9468 15.6936 25.2021 15.6085 25.4788C15.3957 26.33 15.0126 27.1493 14.4594 27.9366C13.9699 28.6389 13.3741 29.2347 12.6718 29.7242C11.9696 30.1923 11.2035 30.5115 10.3736 30.6818C9.79901 30.7882 9.29893 30.8414 8.87332 30.8414C7.31987 30.8414 5.98986 30.3732 4.88329 29.4369C3.77673 28.4793 3.1596 27.2025 3.03192 25.6065C3.01064 25.4362 3 25.1702 3 24.8084C3 23.404 3.23408 21.9356 3.70225 20.4035C4.17041 18.85 4.79817 17.2221 5.58554 15.5197C7.20283 12.0084 9.09676 9.34841 11.2673 7.5396C11.927 6.98632 12.6505 6.53943 13.4379 6.19895C14.2253 5.85847 14.9807 5.68823 15.7043 5.68823C16.3427 5.68823 16.9172 5.83719 17.4279 6.13511C17.9599 6.43303 18.3856 6.9012 18.7048 7.5396C19.1304 8.36953 19.3432 9.29521 19.3432 10.3167C19.3432 11.3168 19.1516 12.3489 18.7686 13.4129C18.3856 14.4556 17.8748 15.4452 17.2364 16.3815C16.9385 16.8284 16.5235 17.3072 15.9915 17.8179C15.4808 18.3074 15.0126 18.5521 14.587 18.5521C14.3317 18.5521 14.1295 18.4457 13.9806 18.2329C13.8316 18.0626 13.7571 17.8498 13.7571 17.5945C13.7571 17.0837 14.1082 16.4028 14.8105 15.5516L15.2574 14.9132C15.534 14.445 15.6723 13.9343 15.6723 13.381C15.6723 12.6149 15.4276 11.934 14.9382 11.3381C14.47 10.7423 13.8954 10.4443 13.2145 10.4443C12.725 10.4443 12.2356 10.6252 11.7461 10.987C10.6609 11.7744 9.74581 13.0192 9.001 14.7217C8.2562 16.4028 7.72419 18.0839 7.40499 19.765C7.29859 20.3396 7.24539 20.8291 7.24539 21.2334C7.24539 22.5953 7.63907 23.6912 8.42644 24.5212C9.2138 25.3298 10.3523 25.7129 11.8419 25.6703C11.6929 25.2021 11.544 24.8829 11.395 24.7127C11.2461 24.5424 10.9801 24.4254 10.597 24.3616C10.4693 24.3403 10.2672 24.3616 9.99053 24.4254C9.73517 24.4892 9.54365 24.5212 9.41597 24.5212C8.71372 24.4573 8.3626 24.1488 8.3626 23.5955C8.3626 23.3827 8.4158 23.0954 8.5222 22.7336C8.75628 22.0101 9.09676 21.4675 9.54365 21.1057C10.0118 20.7227 10.5119 20.4673 11.0439 20.3396C11.5972 20.2119 12.2994 20.1055 13.1506 20.0204L14.1082 19.8927C14.2572 19.8715 14.619 19.797 15.1935 19.6693C15.3212 19.648 15.7362 19.5629 16.4384 19.4139C17.1619 19.265 17.8323 19.1905 18.4494 19.1905C19.6836 19.1905 20.3859 19.5842 20.5561 20.3715C20.5987 20.6269 20.62 20.8078 20.62 20.9142C20.62 21.3398 20.5455 21.8505 20.3965 22.4463C20.3114 22.9784 20.2582 23.3295 20.2369 23.4997C20.1092 24.5424 20.0454 25.6064 20.0454 26.6917C20.0454 27.245 20.056 27.6493 20.0773 27.9047Z"></path>
<path d="M31.401 13.6044C31.4223 13.1788 31.7202 12.8064 32.2948 12.4872C32.8906 12.1468 33.4865 11.9765 34.0823 11.9765C34.4228 11.9765 34.6994 12.051 34.9122 12.2C35.125 12.3276 35.2208 12.5404 35.1995 12.8384C35.157 13.647 35.1357 14.296 35.1357 14.7855C35.0293 17.5519 34.8378 19.9034 34.5611 21.8399C34.3058 23.7764 33.7206 25.5958 32.8055 27.2982C31.8905 29.0006 30.5285 30.1178 28.7197 30.6498C28.1026 30.8201 27.5174 30.9052 26.9641 30.9052C25.6022 30.9052 24.3999 30.5009 23.3571 29.6922C22.3357 28.8836 21.7505 27.7877 21.6015 26.4045C21.559 25.8512 21.5377 25.4362 21.5377 25.1596C21.5377 23.6912 21.7611 22.191 22.208 20.6588C22.6549 19.1266 23.3039 17.2753 24.1551 15.1047C24.4105 14.5301 24.6978 13.796 25.017 12.9022C25.1447 12.5404 25.4639 12.2425 25.9746 12.0084C26.5066 11.7531 27.028 11.6254 27.5387 11.6254C27.8792 11.6254 28.1558 11.6999 28.3686 11.8488C28.5814 11.9765 28.6878 12.168 28.6878 12.4234C28.6878 12.5085 28.6665 12.6362 28.624 12.8064C28.1984 14.0407 27.8685 14.9664 27.6344 15.5835C27.0173 17.3072 26.5385 18.7542 26.198 19.9246C25.8575 21.0738 25.6235 22.2548 25.4958 23.4678C25.4532 23.9785 25.4319 24.3828 25.4319 24.6808C25.4319 25.9363 25.7405 26.8407 26.3576 27.394C26.5491 27.5855 26.8045 27.7664 27.1237 27.9366C27.4429 28.0856 27.7408 28.1707 28.0175 28.192L28.2728 28.2558C28.2941 28.2558 28.3367 28.2239 28.4005 28.1601C28.9325 27.8196 29.3581 27.245 29.6773 26.4364C30.0178 25.6065 30.2413 24.8723 30.3477 24.2339C30.4541 23.5955 30.603 22.5847 30.7945 21.2015C30.9435 20.0736 31.0605 18.8394 31.1457 17.4987C31.2521 16.1581 31.3372 14.86 31.401 13.6044Z"></path>
<path d="M43.2726 12.4872C43.23 12.0404 43.5067 11.6467 44.1025 11.3062C44.7197 10.9444 45.3261 10.7635 45.922 10.7635C46.5817 10.7635 46.9434 10.987 47.0073 11.4339C47.4754 14.8387 47.8372 17.7647 48.0926 20.2119C48.3479 22.6591 48.4756 25.0851 48.4756 27.4897C48.4756 30.7243 48.2202 33.5865 47.7095 36.0763C47.3052 38.0553 46.72 39.8322 45.9539 41.407C45.1878 42.9817 44.1345 44.2053 42.7938 45.0778C41.6872 45.78 40.57 46.1312 39.4422 46.1312C38.3994 46.1312 37.378 45.8545 36.3778 45.3012C35.3777 44.7692 34.4413 44.0351 33.5689 43.0987C33.3986 42.8859 33.3135 42.7051 33.3135 42.5561C33.3135 42.1305 33.6221 41.7262 34.2392 41.3431C34.835 40.9814 35.4415 40.8005 36.0586 40.8005C36.4842 40.8005 36.8141 40.9175 37.0482 41.1516C37.1546 41.258 37.4099 41.524 37.8142 41.9496C38.2186 42.3752 38.6335 42.737 39.0591 43.0349C39.506 43.3328 39.9103 43.4818 40.2721 43.4818C40.4636 43.4818 40.6019 43.4605 40.6871 43.4179C41.0914 43.269 41.4425 42.9179 41.7404 42.3646C42.0596 41.8113 42.315 41.3006 42.5065 40.8324C42.698 40.3642 42.8151 40.077 42.8576 39.9706C43.3684 38.6937 43.7408 37.3425 43.9748 35.9167C44.2089 34.5122 44.3685 32.9375 44.4537 31.1925C44.4962 29.8306 44.5175 28.7985 44.5175 28.0962C43.9642 29.0964 43.3152 29.8838 42.5704 30.4583C41.8256 31.0116 40.9212 31.2883 39.8571 31.2883C38.3463 31.2883 37.3567 30.6179 36.8886 29.2773C36.4417 27.9153 36.2076 26.2555 36.1863 24.2977L36.1544 23.0209C36.1544 19.7012 36.4949 16.5837 37.1758 13.6683C37.261 13.264 37.6227 12.9022 38.2611 12.583C38.8995 12.2638 39.506 12.1042 40.0806 12.1042C40.3785 12.1042 40.6126 12.168 40.7828 12.2957C40.9531 12.4234 41.0169 12.6043 40.9743 12.8384C40.4849 15.3069 40.1763 17.9775 40.0487 20.8503C40.0061 21.7441 39.9848 22.4357 39.9848 22.9252C39.9848 23.7338 40.038 24.6382 40.1444 25.6384C40.2721 26.5321 40.4211 27.1705 40.5913 27.5536L40.8467 28.0643C40.9956 27.7877 41.1978 27.3727 41.4532 26.8194C41.9852 25.4575 42.4108 23.8189 42.73 21.9037L43.0172 20.3396C43.4216 18.4457 43.6237 16.9454 43.6237 15.8389C43.6237 15.2856 43.6024 14.8706 43.5599 14.594L43.2726 12.4872Z"></path>
<path d="M53.3449 5.46478C53.3875 5.06046 53.728 4.6987 54.3664 4.3795C55.0048 4.03902 55.6113 3.86877 56.1858 3.86877C56.8668 3.86877 57.1966 4.12414 57.1754 4.63486C56.8349 8.44401 56.271 13.7002 55.4836 20.4035C54.9729 24.9787 54.643 27.9473 54.4941 29.3092C54.4515 29.7561 54.111 30.1604 53.4726 30.5222C52.8555 30.8626 52.249 31.0329 51.6532 31.0329C50.8232 31.0329 50.4402 30.7243 50.504 30.1072C51.2488 22.7868 52.1958 14.5727 53.3449 5.46478Z"></path>
<path d="M70.8135 27.394C71.1327 27.5004 71.2923 27.6919 71.2923 27.9685C71.2923 28.309 71.0902 28.6814 70.6859 29.0858C70.239 29.5326 69.6644 29.7561 68.9622 29.7561C68.6217 29.7561 68.3344 29.7135 68.1003 29.6284C66.9725 29.2666 65.951 29.0858 65.036 29.0858C63.44 29.0858 61.812 29.5965 60.1522 30.6179C59.8755 30.8094 59.535 30.969 59.1307 31.0967C58.7477 31.2031 58.3859 31.2563 58.0454 31.2563C57.7262 31.2563 57.4709 31.2031 57.2794 31.0967C57.0878 30.969 56.9921 30.7775 56.9921 30.5222C56.9921 30.3732 57.0134 30.2455 57.0559 30.1391C57.673 28.4154 58.1625 26.862 58.5242 25.4788C58.9073 24.0956 59.1626 22.6911 59.2903 21.2653C59.4818 19.3501 59.5776 17.9456 59.5776 17.0518C59.5776 14.6897 59.1201 12.8809 58.205 11.6254C58.0986 11.4977 58.0454 11.3275 58.0454 11.1147C58.0454 10.6891 58.3434 10.2954 58.9392 9.93362C59.535 9.55057 60.1203 9.35905 60.6948 9.35905C61.0779 9.35905 61.3545 9.44417 61.5247 9.61442C61.8014 9.72082 61.9823 9.89106 62.0674 10.1251C62.5994 11.5296 63.3336 12.7213 64.2699 13.7002C65.2062 14.6578 66.3128 15.1366 67.5896 15.1366C67.8237 15.1366 68.1748 15.0941 68.643 15.0089C68.9409 14.9664 69.1324 14.9451 69.2175 14.9451C69.5793 14.9451 69.8453 15.0302 70.0155 15.2005C70.207 15.3494 70.3028 15.5622 70.3028 15.8389C70.3028 16.1368 70.1751 16.4347 69.9198 16.7326C69.6857 17.0305 69.3665 17.2434 68.9622 17.371C68.0897 17.669 67.2172 17.8179 66.3447 17.8179C65.302 17.8179 64.3018 17.6051 63.3442 17.1795C63.3016 18.3712 63.2484 19.265 63.1846 19.8608L62.9612 21.8718C63.7911 21.7228 64.621 21.5951 65.4509 21.4887L65.8978 21.4568C66.749 21.4568 67.1746 21.7441 67.1746 22.3187C67.1746 22.7017 66.9618 23.0422 66.5362 23.3401C66.1106 23.638 65.6744 23.8296 65.2275 23.9147C64.5678 24.0424 63.6634 24.1807 62.5143 24.3296C62.2802 25.3724 62.0248 26.3513 61.7482 27.2663C63.1527 26.7556 64.5784 26.5002 66.0255 26.5002C67.6215 26.5002 69.2175 26.7981 70.8135 27.394Z"></path>
<path d="M84.3627 12.5511C83.8519 16.4241 83.5966 20.0736 83.5966 23.4997C83.5966 25.1596 83.6604 26.8407 83.7881 28.5431C83.8307 28.6708 83.8519 28.7772 83.8519 28.8623C83.8519 28.9262 83.8307 29.0219 83.7881 29.1496C83.7881 29.1709 83.7775 29.1815 83.7562 29.1815V29.2454C83.6285 29.6071 83.3306 29.9263 82.8624 30.203C82.3943 30.4583 81.8942 30.6073 81.3622 30.6498C80.511 30.735 80.0002 30.5115 79.83 29.9795C79.0852 27.9792 77.9041 25.2128 76.2868 21.6803L75.9038 20.7865C75.7336 23.4465 75.6272 26.2874 75.5846 29.3092C75.5846 29.7561 75.2867 30.1604 74.6908 30.5222C74.095 30.8626 73.4885 31.0329 72.8714 31.0329C72.4883 31.0329 72.1798 30.9584 71.9457 30.8094C71.7116 30.6605 71.6052 30.4158 71.6265 30.0753C71.7542 24.2871 72.1691 18.8074 72.8714 13.6364L72.9033 13.5087C72.8607 13.0405 73.148 12.6149 73.7652 12.2319C74.3823 11.8488 74.9994 11.6573 75.6165 11.6573C76.2549 11.6573 76.6486 11.8701 76.7976 12.2957C77.4785 14.1471 78.4893 16.5305 79.83 19.4458C79.9577 17.4455 80.1811 15.4133 80.5003 13.3491C80.5642 12.9235 80.9046 12.5511 81.5218 12.2319C82.1389 11.8914 82.7454 11.7212 83.3412 11.7212C84.1073 11.7212 84.4478 11.9978 84.3627 12.5511Z"></path>
<path d="M98.7614 27.394C99.0806 27.5004 99.2402 27.6919 99.2402 27.9685C99.2402 28.309 99.0381 28.6814 98.6338 29.0858C98.1869 29.5326 97.6123 29.7561 96.9101 29.7561C96.5696 29.7561 96.2823 29.7135 96.0482 29.6284C94.9204 29.2666 93.8989 29.0858 92.9839 29.0858C91.3879 29.0858 89.7599 29.5965 88.1001 30.6179C87.8234 30.8094 87.4829 30.969 87.0786 31.0967C86.6956 31.2031 86.3338 31.2563 85.9933 31.2563C85.6741 31.2563 85.4188 31.2031 85.2273 31.0967C85.0357 30.969 84.94 30.7775 84.94 30.5222C84.94 30.3732 84.9613 30.2455 85.0038 30.1391C85.6209 28.4154 86.1104 26.862 86.4721 25.4788C86.8552 24.0956 87.1105 22.6911 87.2382 21.2653C87.4297 19.3501 87.5255 17.9456 87.5255 17.0518C87.5255 14.6897 87.068 12.8809 86.1529 11.6254C86.0465 11.4977 85.9933 11.3275 85.9933 11.1147C85.9933 10.6891 86.2913 10.2954 86.8871 9.93362C87.4829 9.55057 88.0682 9.35905 88.6427 9.35905C89.0258 9.35905 89.3024 9.44417 89.4726 9.61442C89.7493 9.72082 89.9302 9.89106 90.0153 10.1251C90.5473 11.5296 91.2815 12.7213 92.2178 13.7002C93.1541 14.6578 94.2607 15.1366 95.5375 15.1366C95.7716 15.1366 96.1227 15.0941 96.5909 15.0089C96.8888 14.9664 97.0803 14.9451 97.1654 14.9451C97.5272 14.9451 97.7932 15.0302 97.9634 15.2005C98.1549 15.3494 98.2507 15.5622 98.2507 15.8389C98.2507 16.1368 98.123 16.4347 97.8677 16.7326C97.6336 17.0305 97.3144 17.2434 96.9101 17.371C96.0376 17.669 95.1651 17.8179 94.2926 17.8179C93.2499 17.8179 92.2497 17.6051 91.2921 17.1795C91.2495 18.3712 91.1963 19.265 91.1325 19.8608L90.9091 21.8718C91.739 21.7228 92.5689 21.5951 93.3988 21.4887L93.8457 21.4568C94.6969 21.4568 95.1225 21.7441 95.1225 22.3187C95.1225 22.7017 94.9097 23.0422 94.4841 23.3401C94.0585 23.638 93.6223 23.8296 93.1754 23.9147C92.5157 24.0424 91.6113 24.1807 90.4622 24.3296C90.2281 25.3724 89.9727 26.3513 89.6961 27.2663C91.1006 26.7556 92.5263 26.5002 93.9734 26.5002C95.5694 26.5002 97.1654 26.7981 98.7614 27.394Z"></path>
</mask>
<path d="M20.0773 27.9047C20.0986 28.2026 20.1518 28.6495 20.2369 29.2454C20.3646 29.9689 20.4284 30.5009 20.4284 30.8414C20.4284 31.5011 20.2795 32.0756 19.9816 32.5651C19.7262 33.0119 19.3751 33.4375 18.9282 33.8419C18.4813 34.2675 18.0451 34.4803 17.6195 34.4803C16.6619 34.4803 16.1831 33.3631 16.1831 31.1286L16.215 29.6603C16.2788 27.7664 16.4916 25.8299 16.8534 23.8508C16.3852 23.8721 16.0979 23.936 15.9915 24.0424C15.8851 24.1488 15.8 24.3722 15.7362 24.7127C15.7362 24.9468 15.6936 25.2021 15.6085 25.4788C15.3957 26.33 15.0126 27.1493 14.4594 27.9366C13.9699 28.6389 13.3741 29.2347 12.6718 29.7242C11.9696 30.1923 11.2035 30.5115 10.3736 30.6818C9.79901 30.7882 9.29893 30.8414 8.87332 30.8414C7.31987 30.8414 5.98986 30.3732 4.88329 29.4369C3.77673 28.4793 3.1596 27.2025 3.03192 25.6065C3.01064 25.4362 3 25.1702 3 24.8084C3 23.404 3.23408 21.9356 3.70225 20.4035C4.17041 18.85 4.79817 17.2221 5.58554 15.5197C7.20283 12.0084 9.09676 9.34841 11.2673 7.5396C11.927 6.98632 12.6505 6.53943 13.4379 6.19895C14.2253 5.85847 14.9807 5.68823 15.7043 5.68823C16.3427 5.68823 16.9172 5.83719 17.4279 6.13511C17.9599 6.43303 18.3856 6.9012 18.7048 7.5396C19.1304 8.36953 19.3432 9.29521 19.3432 10.3167C19.3432 11.3168 19.1516 12.3489 18.7686 13.4129C18.3856 14.4556 17.8748 15.4452 17.2364 16.3815C16.9385 16.8284 16.5235 17.3072 15.9915 17.8179C15.4808 18.3074 15.0126 18.5521 14.587 18.5521C14.3317 18.5521 14.1295 18.4457 13.9806 18.2329C13.8316 18.0626 13.7571 17.8498 13.7571 17.5945C13.7571 17.0837 14.1082 16.4028 14.8105 15.5516L15.2574 14.9132C15.534 14.445 15.6723 13.9343 15.6723 13.381C15.6723 12.6149 15.4276 11.934 14.9382 11.3381C14.47 10.7423 13.8954 10.4443 13.2145 10.4443C12.725 10.4443 12.2356 10.6252 11.7461 10.987C10.6609 11.7744 9.74581 13.0192 9.001 14.7217C8.2562 16.4028 7.72419 18.0839 7.40499 19.765C7.29859 20.3396 7.24539 20.8291 7.24539 21.2334C7.24539 22.5953 7.63907 23.6912 8.42644 24.5212C9.2138 25.3298 10.3523 25.7129 11.8419 25.6703C11.6929 25.2021 11.544 24.8829 11.395 24.7127C11.2461 24.5424 10.9801 24.4254 10.597 24.3616C10.4693 24.3403 10.2672 24.3616 9.99053 24.4254C9.73517 24.4892 9.54365 24.5212 9.41597 24.5212C8.71372 24.4573 8.3626 24.1488 8.3626 23.5955C8.3626 23.3827 8.4158 23.0954 8.5222 22.7336C8.75628 22.0101 9.09676 21.4675 9.54365 21.1057C10.0118 20.7227 10.5119 20.4673 11.0439 20.3396C11.5972 20.2119 12.2994 20.1055 13.1506 20.0204L14.1082 19.8927C14.2572 19.8715 14.619 19.797 15.1935 19.6693C15.3212 19.648 15.7362 19.5629 16.4384 19.4139C17.1619 19.265 17.8323 19.1905 18.4494 19.1905C19.6836 19.1905 20.3859 19.5842 20.5561 20.3715C20.5987 20.6269 20.62 20.8078 20.62 20.9142C20.62 21.3398 20.5455 21.8505 20.3965 22.4463C20.3114 22.9784 20.2582 23.3295 20.2369 23.4997C20.1092 24.5424 20.0454 25.6064 20.0454 26.6917C20.0454 27.245 20.056 27.6493 20.0773 27.9047Z" fill="#B6F13A"></path>
<path d="M31.401 13.6044C31.4223 13.1788 31.7202 12.8064 32.2948 12.4872C32.8906 12.1468 33.4865 11.9765 34.0823 11.9765C34.4228 11.9765 34.6994 12.051 34.9122 12.2C35.125 12.3276 35.2208 12.5404 35.1995 12.8384C35.157 13.647 35.1357 14.296 35.1357 14.7855C35.0293 17.5519 34.8378 19.9034 34.5611 21.8399C34.3058 23.7764 33.7206 25.5958 32.8055 27.2982C31.8905 29.0006 30.5285 30.1178 28.7197 30.6498C28.1026 30.8201 27.5174 30.9052 26.9641 30.9052C25.6022 30.9052 24.3999 30.5009 23.3571 29.6922C22.3357 28.8836 21.7505 27.7877 21.6015 26.4045C21.559 25.8512 21.5377 25.4362 21.5377 25.1596C21.5377 23.6912 21.7611 22.191 22.208 20.6588C22.6549 19.1266 23.3039 17.2753 24.1551 15.1047C24.4105 14.5301 24.6978 13.796 25.017 12.9022C25.1447 12.5404 25.4639 12.2425 25.9746 12.0084C26.5066 11.7531 27.028 11.6254 27.5387 11.6254C27.8792 11.6254 28.1558 11.6999 28.3686 11.8488C28.5814 11.9765 28.6878 12.168 28.6878 12.4234C28.6878 12.5085 28.6665 12.6362 28.624 12.8064C28.1984 14.0407 27.8685 14.9664 27.6344 15.5835C27.0173 17.3072 26.5385 18.7542 26.198 19.9246C25.8575 21.0738 25.6235 22.2548 25.4958 23.4678C25.4532 23.9785 25.4319 24.3828 25.4319 24.6808C25.4319 25.9363 25.7405 26.8407 26.3576 27.394C26.5491 27.5855 26.8045 27.7664 27.1237 27.9366C27.4429 28.0856 27.7408 28.1707 28.0175 28.192L28.2728 28.2558C28.2941 28.2558 28.3367 28.2239 28.4005 28.1601C28.9325 27.8196 29.3581 27.245 29.6773 26.4364C30.0178 25.6065 30.2413 24.8723 30.3477 24.2339C30.4541 23.5955 30.603 22.5847 30.7945 21.2015C30.9435 20.0736 31.0605 18.8394 31.1457 17.4987C31.2521 16.1581 31.3372 14.86 31.401 13.6044Z" fill="#B6F13A"></path>
<path d="M43.2726 12.4872C43.23 12.0404 43.5067 11.6467 44.1025 11.3062C44.7197 10.9444 45.3261 10.7635 45.922 10.7635C46.5817 10.7635 46.9434 10.987 47.0073 11.4339C47.4754 14.8387 47.8372 17.7647 48.0926 20.2119C48.3479 22.6591 48.4756 25.0851 48.4756 27.4897C48.4756 30.7243 48.2202 33.5865 47.7095 36.0763C47.3052 38.0553 46.72 39.8322 45.9539 41.407C45.1878 42.9817 44.1345 44.2053 42.7938 45.0778C41.6872 45.78 40.57 46.1312 39.4422 46.1312C38.3994 46.1312 37.378 45.8545 36.3778 45.3012C35.3777 44.7692 34.4413 44.0351 33.5689 43.0987C33.3986 42.8859 33.3135 42.7051 33.3135 42.5561C33.3135 42.1305 33.6221 41.7262 34.2392 41.3431C34.835 40.9814 35.4415 40.8005 36.0586 40.8005C36.4842 40.8005 36.8141 40.9175 37.0482 41.1516C37.1546 41.258 37.4099 41.524 37.8142 41.9496C38.2186 42.3752 38.6335 42.737 39.0591 43.0349C39.506 43.3328 39.9103 43.4818 40.2721 43.4818C40.4636 43.4818 40.6019 43.4605 40.6871 43.4179C41.0914 43.269 41.4425 42.9179 41.7404 42.3646C42.0596 41.8113 42.315 41.3006 42.5065 40.8324C42.698 40.3642 42.8151 40.077 42.8576 39.9706C43.3684 38.6937 43.7408 37.3425 43.9748 35.9167C44.2089 34.5122 44.3685 32.9375 44.4537 31.1925C44.4962 29.8306 44.5175 28.7985 44.5175 28.0962C43.9642 29.0964 43.3152 29.8838 42.5704 30.4583C41.8256 31.0116 40.9212 31.2883 39.8571 31.2883C38.3463 31.2883 37.3567 30.6179 36.8886 29.2773C36.4417 27.9153 36.2076 26.2555 36.1863 24.2977L36.1544 23.0209C36.1544 19.7012 36.4949 16.5837 37.1758 13.6683C37.261 13.264 37.6227 12.9022 38.2611 12.583C38.8995 12.2638 39.506 12.1042 40.0806 12.1042C40.3785 12.1042 40.6126 12.168 40.7828 12.2957C40.9531 12.4234 41.0169 12.6043 40.9743 12.8384C40.4849 15.3069 40.1763 17.9775 40.0487 20.8503C40.0061 21.7441 39.9848 22.4357 39.9848 22.9252C39.9848 23.7338 40.038 24.6382 40.1444 25.6384C40.2721 26.5321 40.4211 27.1705 40.5913 27.5536L40.8467 28.0643C40.9956 27.7877 41.1978 27.3727 41.4532 26.8194C41.9852 25.4575 42.4108 23.8189 42.73 21.9037L43.0172 20.3396C43.4216 18.4457 43.6237 16.9454 43.6237 15.8389C43.6237 15.2856 43.6024 14.8706 43.5599 14.594L43.2726 12.4872Z" fill="#B6F13A"></path>
<path d="M53.3449 5.46478C53.3875 5.06046 53.728 4.6987 54.3664 4.3795C55.0048 4.03902 55.6113 3.86877 56.1858 3.86877C56.8668 3.86877 57.1966 4.12414 57.1754 4.63486C56.8349 8.44401 56.271 13.7002 55.4836 20.4035C54.9729 24.9787 54.643 27.9473 54.4941 29.3092C54.4515 29.7561 54.111 30.1604 53.4726 30.5222C52.8555 30.8626 52.249 31.0329 51.6532 31.0329C50.8232 31.0329 50.4402 30.7243 50.504 30.1072C51.2488 22.7868 52.1958 14.5727 53.3449 5.46478Z" fill="#B6F13A"></path>
<path d="M70.8135 27.394C71.1327 27.5004 71.2923 27.6919 71.2923 27.9685C71.2923 28.309 71.0902 28.6814 70.6859 29.0858C70.239 29.5326 69.6644 29.7561 68.9622 29.7561C68.6217 29.7561 68.3344 29.7135 68.1003 29.6284C66.9725 29.2666 65.951 29.0858 65.036 29.0858C63.44 29.0858 61.812 29.5965 60.1522 30.6179C59.8755 30.8094 59.535 30.969 59.1307 31.0967C58.7477 31.2031 58.3859 31.2563 58.0454 31.2563C57.7262 31.2563 57.4709 31.2031 57.2794 31.0967C57.0878 30.969 56.9921 30.7775 56.9921 30.5222C56.9921 30.3732 57.0134 30.2455 57.0559 30.1391C57.673 28.4154 58.1625 26.862 58.5242 25.4788C58.9073 24.0956 59.1626 22.6911 59.2903 21.2653C59.4818 19.3501 59.5776 17.9456 59.5776 17.0518C59.5776 14.6897 59.1201 12.8809 58.205 11.6254C58.0986 11.4977 58.0454 11.3275 58.0454 11.1147C58.0454 10.6891 58.3434 10.2954 58.9392 9.93362C59.535 9.55057 60.1203 9.35905 60.6948 9.35905C61.0779 9.35905 61.3545 9.44417 61.5247 9.61442C61.8014 9.72082 61.9823 9.89106 62.0674 10.1251C62.5994 11.5296 63.3336 12.7213 64.2699 13.7002C65.2062 14.6578 66.3128 15.1366 67.5896 15.1366C67.8237 15.1366 68.1748 15.0941 68.643 15.0089C68.9409 14.9664 69.1324 14.9451 69.2175 14.9451C69.5793 14.9451 69.8453 15.0302 70.0155 15.2005C70.207 15.3494 70.3028 15.5622 70.3028 15.8389C70.3028 16.1368 70.1751 16.4347 69.9198 16.7326C69.6857 17.0305 69.3665 17.2434 68.9622 17.371C68.0897 17.669 67.2172 17.8179 66.3447 17.8179C65.302 17.8179 64.3018 17.6051 63.3442 17.1795C63.3016 18.3712 63.2484 19.265 63.1846 19.8608L62.9612 21.8718C63.7911 21.7228 64.621 21.5951 65.4509 21.4887L65.8978 21.4568C66.749 21.4568 67.1746 21.7441 67.1746 22.3187C67.1746 22.7017 66.9618 23.0422 66.5362 23.3401C66.1106 23.638 65.6744 23.8296 65.2275 23.9147C64.5678 24.0424 63.6634 24.1807 62.5143 24.3296C62.2802 25.3724 62.0248 26.3513 61.7482 27.2663C63.1527 26.7556 64.5784 26.5002 66.0255 26.5002C67.6215 26.5002 69.2175 26.7981 70.8135 27.394Z" fill="#B6F13A"></path>
<path d="M84.3627 12.5511C83.8519 16.4241 83.5966 20.0736 83.5966 23.4997C83.5966 25.1596 83.6604 26.8407 83.7881 28.5431C83.8307 28.6708 83.8519 28.7772 83.8519 28.8623C83.8519 28.9262 83.8307 29.0219 83.7881 29.1496C83.7881 29.1709 83.7775 29.1815 83.7562 29.1815V29.2454C83.6285 29.6071 83.3306 29.9263 82.8624 30.203C82.3943 30.4583 81.8942 30.6073 81.3622 30.6498C80.511 30.735 80.0002 30.5115 79.83 29.9795C79.0852 27.9792 77.9041 25.2128 76.2868 21.6803L75.9038 20.7865C75.7336 23.4465 75.6272 26.2874 75.5846 29.3092C75.5846 29.7561 75.2867 30.1604 74.6908 30.5222C74.095 30.8626 73.4885 31.0329 72.8714 31.0329C72.4883 31.0329 72.1798 30.9584 71.9457 30.8094C71.7116 30.6605 71.6052 30.4158 71.6265 30.0753C71.7542 24.2871 72.1691 18.8074 72.8714 13.6364L72.9033 13.5087C72.8607 13.0405 73.148 12.6149 73.7652 12.2319C74.3823 11.8488 74.9994 11.6573 75.6165 11.6573C76.2549 11.6573 76.6486 11.8701 76.7976 12.2957C77.4785 14.1471 78.4893 16.5305 79.83 19.4458C79.9577 17.4455 80.1811 15.4133 80.5003 13.3491C80.5642 12.9235 80.9046 12.5511 81.5218 12.2319C82.1389 11.8914 82.7454 11.7212 83.3412 11.7212C84.1073 11.7212 84.4478 11.9978 84.3627 12.5511Z" fill="#B6F13A"></path>
<path d="M98.7614 27.394C99.0806 27.5004 99.2402 27.6919 99.2402 27.9685C99.2402 28.309 99.0381 28.6814 98.6338 29.0858C98.1869 29.5326 97.6123 29.7561 96.9101 29.7561C96.5696 29.7561 96.2823 29.7135 96.0482 29.6284C94.9204 29.2666 93.8989 29.0858 92.9839 29.0858C91.3879 29.0858 89.7599 29.5965 88.1001 30.6179C87.8234 30.8094 87.4829 30.969 87.0786 31.0967C86.6956 31.2031 86.3338 31.2563 85.9933 31.2563C85.6741 31.2563 85.4188 31.2031 85.2273 31.0967C85.0357 30.969 84.94 30.7775 84.94 30.5222C84.94 30.3732 84.9613 30.2455 85.0038 30.1391C85.6209 28.4154 86.1104 26.862 86.4721 25.4788C86.8552 24.0956 87.1105 22.6911 87.2382 21.2653C87.4297 19.3501 87.5255 17.9456 87.5255 17.0518C87.5255 14.6897 87.068 12.8809 86.1529 11.6254C86.0465 11.4977 85.9933 11.3275 85.9933 11.1147C85.9933 10.6891 86.2913 10.2954 86.8871 9.93362C87.4829 9.55057 88.0682 9.35905 88.6427 9.35905C89.0258 9.35905 89.3024 9.44417 89.4726 9.61442C89.7493 9.72082 89.9302 9.89106 90.0153 10.1251C90.5473 11.5296 91.2815 12.7213 92.2178 13.7002C93.1541 14.6578 94.2607 15.1366 95.5375 15.1366C95.7716 15.1366 96.1227 15.0941 96.5909 15.0089C96.8888 14.9664 97.0803 14.9451 97.1654 14.9451C97.5272 14.9451 97.7932 15.0302 97.9634 15.2005C98.1549 15.3494 98.2507 15.5622 98.2507 15.8389C98.2507 16.1368 98.123 16.4347 97.8677 16.7326C97.6336 17.0305 97.3144 17.2434 96.9101 17.371C96.0376 17.669 95.1651 17.8179 94.2926 17.8179C93.2499 17.8179 92.2497 17.6051 91.2921 17.1795C91.2495 18.3712 91.1963 19.265 91.1325 19.8608L90.9091 21.8718C91.739 21.7228 92.5689 21.5951 93.3988 21.4887L93.8457 21.4568C94.6969 21.4568 95.1225 21.7441 95.1225 22.3187C95.1225 22.7017 94.9097 23.0422 94.4841 23.3401C94.0585 23.638 93.6223 23.8296 93.1754 23.9147C92.5157 24.0424 91.6113 24.1807 90.4622 24.3296C90.2281 25.3724 89.9727 26.3513 89.6961 27.2663C91.1006 26.7556 92.5263 26.5002 93.9734 26.5002C95.5694 26.5002 97.1654 26.7981 98.7614 27.394Z" fill="#B6F13A"></path>
<path d="M20.0773 27.9047C20.0986 28.2026 20.1518 28.6495 20.2369 29.2454C20.3646 29.9689 20.4284 30.5009 20.4284 30.8414C20.4284 31.5011 20.2795 32.0756 19.9816 32.5651C19.7262 33.0119 19.3751 33.4375 18.9282 33.8419C18.4813 34.2675 18.0451 34.4803 17.6195 34.4803C16.6619 34.4803 16.1831 33.3631 16.1831 31.1286L16.215 29.6603C16.2788 27.7664 16.4916 25.8299 16.8534 23.8508C16.3852 23.8721 16.0979 23.936 15.9915 24.0424C15.8851 24.1488 15.8 24.3722 15.7362 24.7127C15.7362 24.9468 15.6936 25.2021 15.6085 25.4788C15.3957 26.33 15.0126 27.1493 14.4594 27.9366C13.9699 28.6389 13.3741 29.2347 12.6718 29.7242C11.9696 30.1923 11.2035 30.5115 10.3736 30.6818C9.79901 30.7882 9.29893 30.8414 8.87332 30.8414C7.31987 30.8414 5.98986 30.3732 4.88329 29.4369C3.77673 28.4793 3.1596 27.2025 3.03192 25.6065C3.01064 25.4362 3 25.1702 3 24.8084C3 23.404 3.23408 21.9356 3.70225 20.4035C4.17041 18.85 4.79817 17.2221 5.58554 15.5197C7.20283 12.0084 9.09676 9.34841 11.2673 7.5396C11.927 6.98632 12.6505 6.53943 13.4379 6.19895C14.2253 5.85847 14.9807 5.68823 15.7043 5.68823C16.3427 5.68823 16.9172 5.83719 17.4279 6.13511C17.9599 6.43303 18.3856 6.9012 18.7048 7.5396C19.1304 8.36953 19.3432 9.29521 19.3432 10.3167C19.3432 11.3168 19.1516 12.3489 18.7686 13.4129C18.3856 14.4556 17.8748 15.4452 17.2364 16.3815C16.9385 16.8284 16.5235 17.3072 15.9915 17.8179C15.4808 18.3074 15.0126 18.5521 14.587 18.5521C14.3317 18.5521 14.1295 18.4457 13.9806 18.2329C13.8316 18.0626 13.7571 17.8498 13.7571 17.5945C13.7571 17.0837 14.1082 16.4028 14.8105 15.5516L15.2574 14.9132C15.534 14.445 15.6723 13.9343 15.6723 13.381C15.6723 12.6149 15.4276 11.934 14.9382 11.3381C14.47 10.7423 13.8954 10.4443 13.2145 10.4443C12.725 10.4443 12.2356 10.6252 11.7461 10.987C10.6609 11.7744 9.74581 13.0192 9.001 14.7217C8.2562 16.4028 7.72419 18.0839 7.40499 19.765C7.29859 20.3396 7.24539 20.8291 7.24539 21.2334C7.24539 22.5953 7.63907 23.6912 8.42644 24.5212C9.2138 25.3298 10.3523 25.7129 11.8419 25.6703C11.6929 25.2021 11.544 24.8829 11.395 24.7127C11.2461 24.5424 10.9801 24.4254 10.597 24.3616C10.4693 24.3403 10.2672 24.3616 9.99053 24.4254C9.73517 24.4892 9.54365 24.5212 9.41597 24.5212C8.71372 24.4573 8.3626 24.1488 8.3626 23.5955C8.3626 23.3827 8.4158 23.0954 8.5222 22.7336C8.75628 22.0101 9.09676 21.4675 9.54365 21.1057C10.0118 20.7227 10.5119 20.4673 11.0439 20.3396C11.5972 20.2119 12.2994 20.1055 13.1506 20.0204L14.1082 19.8927C14.2572 19.8715 14.619 19.797 15.1935 19.6693C15.3212 19.648 15.7362 19.5629 16.4384 19.4139C17.1619 19.265 17.8323 19.1905 18.4494 19.1905C19.6836 19.1905 20.3859 19.5842 20.5561 20.3715C20.5987 20.6269 20.62 20.8078 20.62 20.9142C20.62 21.3398 20.5455 21.8505 20.3965 22.4463C20.3114 22.9784 20.2582 23.3295 20.2369 23.4997C20.1092 24.5424 20.0454 25.6064 20.0454 26.6917C20.0454 27.245 20.056 27.6493 20.0773 27.9047Z" stroke="#243208" stroke-width="5.95897" mask="url('#path-1-outside-1_301_890')"></path>
<path d="M31.401 13.6044C31.4223 13.1788 31.7202 12.8064 32.2948 12.4872C32.8906 12.1468 33.4865 11.9765 34.0823 11.9765C34.4228 11.9765 34.6994 12.051 34.9122 12.2C35.125 12.3276 35.2208 12.5404 35.1995 12.8384C35.157 13.647 35.1357 14.296 35.1357 14.7855C35.0293 17.5519 34.8378 19.9034 34.5611 21.8399C34.3058 23.7764 33.7206 25.5958 32.8055 27.2982C31.8905 29.0006 30.5285 30.1178 28.7197 30.6498C28.1026 30.8201 27.5174 30.9052 26.9641 30.9052C25.6022 30.9052 24.3999 30.5009 23.3571 29.6922C22.3357 28.8836 21.7505 27.7877 21.6015 26.4045C21.559 25.8512 21.5377 25.4362 21.5377 25.1596C21.5377 23.6912 21.7611 22.191 22.208 20.6588C22.6549 19.1266 23.3039 17.2753 24.1551 15.1047C24.4105 14.5301 24.6978 13.796 25.017 12.9022C25.1447 12.5404 25.4639 12.2425 25.9746 12.0084C26.5066 11.7531 27.028 11.6254 27.5387 11.6254C27.8792 11.6254 28.1558 11.6999 28.3686 11.8488C28.5814 11.9765 28.6878 12.168 28.6878 12.4234C28.6878 12.5085 28.6665 12.6362 28.624 12.8064C28.1984 14.0407 27.8685 14.9664 27.6344 15.5835C27.0173 17.3072 26.5385 18.7542 26.198 19.9246C25.8575 21.0738 25.6235 22.2548 25.4958 23.4678C25.4532 23.9785 25.4319 24.3828 25.4319 24.6808C25.4319 25.9363 25.7405 26.8407 26.3576 27.394C26.5491 27.5855 26.8045 27.7664 27.1237 27.9366C27.4429 28.0856 27.7408 28.1707 28.0175 28.192L28.2728 28.2558C28.2941 28.2558 28.3367 28.2239 28.4005 28.1601C28.9325 27.8196 29.3581 27.245 29.6773 26.4364C30.0178 25.6065 30.2413 24.8723 30.3477 24.2339C30.4541 23.5955 30.603 22.5847 30.7945 21.2015C30.9435 20.0736 31.0605 18.8394 31.1457 17.4987C31.2521 16.1581 31.3372 14.86 31.401 13.6044Z" stroke="#243208" stroke-width="5.95897" mask="url('#path-1-outside-1_301_890')"></path>
<path d="M43.2726 12.4872C43.23 12.0404 43.5067 11.6467 44.1025 11.3062C44.7197 10.9444 45.3261 10.7635 45.922 10.7635C46.5817 10.7635 46.9434 10.987 47.0073 11.4339C47.4754 14.8387 47.8372 17.7647 48.0926 20.2119C48.3479 22.6591 48.4756 25.0851 48.4756 27.4897C48.4756 30.7243 48.2202 33.5865 47.7095 36.0763C47.3052 38.0553 46.72 39.8322 45.9539 41.407C45.1878 42.9817 44.1345 44.2053 42.7938 45.0778C41.6872 45.78 40.57 46.1312 39.4422 46.1312C38.3994 46.1312 37.378 45.8545 36.3778 45.3012C35.3777 44.7692 34.4413 44.0351 33.5689 43.0987C33.3986 42.8859 33.3135 42.7051 33.3135 42.5561C33.3135 42.1305 33.6221 41.7262 34.2392 41.3431C34.835 40.9814 35.4415 40.8005 36.0586 40.8005C36.4842 40.8005 36.8141 40.9175 37.0482 41.1516C37.1546 41.258 37.4099 41.524 37.8142 41.9496C38.2186 42.3752 38.6335 42.737 39.0591 43.0349C39.506 43.3328 39.9103 43.4818 40.2721 43.4818C40.4636 43.4818 40.6019 43.4605 40.6871 43.4179C41.0914 43.269 41.4425 42.9179 41.7404 42.3646C42.0596 41.8113 42.315 41.3006 42.5065 40.8324C42.698 40.3642 42.8151 40.077 42.8576 39.9706C43.3684 38.6937 43.7408 37.3425 43.9748 35.9167C44.2089 34.5122 44.3685 32.9375 44.4537 31.1925C44.4962 29.8306 44.5175 28.7985 44.5175 28.0962C43.9642 29.0964 43.3152 29.8838 42.5704 30.4583C41.8256 31.0116 40.9212 31.2883 39.8571 31.2883C38.3463 31.2883 37.3567 30.6179 36.8886 29.2773C36.4417 27.9153 36.2076 26.2555 36.1863 24.2977L36.1544 23.0209C36.1544 19.7012 36.4949 16.5837 37.1758 13.6683C37.261 13.264 37.6227 12.9022 38.2611 12.583C38.8995 12.2638 39.506 12.1042 40.0806 12.1042C40.3785 12.1042 40.6126 12.168 40.7828 12.2957C40.9531 12.4234 41.0169 12.6043 40.9743 12.8384C40.4849 15.3069 40.1763 17.9775 40.0487 20.8503C40.0061 21.7441 39.9848 22.4357 39.9848 22.9252C39.9848 23.7338 40.038 24.6382 40.1444 25.6384C40.2721 26.5321 40.4211 27.1705 40.5913 27.5536L40.8467 28.0643C40.9956 27.7877 41.1978 27.3727 41.4532 26.8194C41.9852 25.4575 42.4108 23.8189 42.73 21.9037L43.0172 20.3396C43.4216 18.4457 43.6237 16.9454 43.6237 15.8389C43.6237 15.2856 43.6024 14.8706 43.5599 14.594L43.2726 12.4872Z" stroke="#243208" stroke-width="5.95897" mask="url('#path-1-outside-1_301_890')"></path>
<path d="M53.3449 5.46478C53.3875 5.06046 53.728 4.6987 54.3664 4.3795C55.0048 4.03902 55.6113 3.86877 56.1858 3.86877C56.8668 3.86877 57.1966 4.12414 57.1754 4.63486C56.8349 8.44401 56.271 13.7002 55.4836 20.4035C54.9729 24.9787 54.643 27.9473 54.4941 29.3092C54.4515 29.7561 54.111 30.1604 53.4726 30.5222C52.8555 30.8626 52.249 31.0329 51.6532 31.0329C50.8232 31.0329 50.4402 30.7243 50.504 30.1072C51.2488 22.7868 52.1958 14.5727 53.3449 5.46478Z" stroke="#243208" stroke-width="5.95897" mask="url('#path-1-outside-1_301_890')"></path>
<path d="M70.8135 27.394C71.1327 27.5004 71.2923 27.6919 71.2923 27.9685C71.2923 28.309 71.0902 28.6814 70.6859 29.0858C70.239 29.5326 69.6644 29.7561 68.9622 29.7561C68.6217 29.7561 68.3344 29.7135 68.1003 29.6284C66.9725 29.2666 65.951 29.0858 65.036 29.0858C63.44 29.0858 61.812 29.5965 60.1522 30.6179C59.8755 30.8094 59.535 30.969 59.1307 31.0967C58.7477 31.2031 58.3859 31.2563 58.0454 31.2563C57.7262 31.2563 57.4709 31.2031 57.2794 31.0967C57.0878 30.969 56.9921 30.7775 56.9921 30.5222C56.9921 30.3732 57.0134 30.2455 57.0559 30.1391C57.673 28.4154 58.1625 26.862 58.5242 25.4788C58.9073 24.0956 59.1626 22.6911 59.2903 21.2653C59.4818 19.3501 59.5776 17.9456 59.5776 17.0518C59.5776 14.6897 59.1201 12.8809 58.205 11.6254C58.0986 11.4977 58.0454 11.3275 58.0454 11.1147C58.0454 10.6891 58.3434 10.2954 58.9392 9.93362C59.535 9.55057 60.1203 9.35905 60.6948 9.35905C61.0779 9.35905 61.3545 9.44417 61.5247 9.61442C61.8014 9.72082 61.9823 9.89106 62.0674 10.1251C62.5994 11.5296 63.3336 12.7213 64.2699 13.7002C65.2062 14.6578 66.3128 15.1366 67.5896 15.1366C67.8237 15.1366 68.1748 15.0941 68.643 15.0089C68.9409 14.9664 69.1324 14.9451 69.2175 14.9451C69.5793 14.9451 69.8453 15.0302 70.0155 15.2005C70.207 15.3494 70.3028 15.5622 70.3028 15.8389C70.3028 16.1368 70.1751 16.4347 69.9198 16.7326C69.6857 17.0305 69.3665 17.2434 68.9622 17.371C68.0897 17.669 67.2172 17.8179 66.3447 17.8179C65.302 17.8179 64.3018 17.6051 63.3442 17.1795C63.3016 18.3712 63.2484 19.265 63.1846 19.8608L62.9612 21.8718C63.7911 21.7228 64.621 21.5951 65.4509 21.4887L65.8978 21.4568C66.749 21.4568 67.1746 21.7441 67.1746 22.3187C67.1746 22.7017 66.9618 23.0422 66.5362 23.3401C66.1106 23.638 65.6744 23.8296 65.2275 23.9147C64.5678 24.0424 63.6634 24.1807 62.5143 24.3296C62.2802 25.3724 62.0248 26.3513 61.7482 27.2663C63.1527 26.7556 64.5784 26.5002 66.0255 26.5002C67.6215 26.5002 69.2175 26.7981 70.8135 27.394Z" stroke="#243208" stroke-width="5.95897" mask="url('#path-1-outside-1_301_890')"></path>
<path d="M84.3627 12.5511C83.8519 16.4241 83.5966 20.0736 83.5966 23.4997C83.5966 25.1596 83.6604 26.8407 83.7881 28.5431C83.8307 28.6708 83.8519 28.7772 83.8519 28.8623C83.8519 28.9262 83.8307 29.0219 83.7881 29.1496C83.7881 29.1709 83.7775 29.1815 83.7562 29.1815V29.2454C83.6285 29.6071 83.3306 29.9263 82.8624 30.203C82.3943 30.4583 81.8942 30.6073 81.3622 30.6498C80.511 30.735 80.0002 30.5115 79.83 29.9795C79.0852 27.9792 77.9041 25.2128 76.2868 21.6803L75.9038 20.7865C75.7336 23.4465 75.6272 26.2874 75.5846 29.3092C75.5846 29.7561 75.2867 30.1604 74.6908 30.5222C74.095 30.8626 73.4885 31.0329 72.8714 31.0329C72.4883 31.0329 72.1798 30.9584 71.9457 30.8094C71.7116 30.6605 71.6052 30.4158 71.6265 30.0753C71.7542 24.2871 72.1691 18.8074 72.8714 13.6364L72.9033 13.5087C72.8607 13.0405 73.148 12.6149 73.7652 12.2319C74.3823 11.8488 74.9994 11.6573 75.6165 11.6573C76.2549 11.6573 76.6486 11.8701 76.7976 12.2957C77.4785 14.1471 78.4893 16.5305 79.83 19.4458C79.9577 17.4455 80.1811 15.4133 80.5003 13.3491C80.5642 12.9235 80.9046 12.5511 81.5218 12.2319C82.1389 11.8914 82.7454 11.7212 83.3412 11.7212C84.1073 11.7212 84.4478 11.9978 84.3627 12.5511Z" stroke="#243208" stroke-width="5.95897" mask="url('#path-1-outside-1_301_890')"></path>
<path d="M98.7614 27.394C99.0806 27.5004 99.2402 27.6919 99.2402 27.9685C99.2402 28.309 99.0381 28.6814 98.6338 29.0858C98.1869 29.5326 97.6123 29.7561 96.9101 29.7561C96.5696 29.7561 96.2823 29.7135 96.0482 29.6284C94.9204 29.2666 93.8989 29.0858 92.9839 29.0858C91.3879 29.0858 89.7599 29.5965 88.1001 30.6179C87.8234 30.8094 87.4829 30.969 87.0786 31.0967C86.6956 31.2031 86.3338 31.2563 85.9933 31.2563C85.6741 31.2563 85.4188 31.2031 85.2273 31.0967C85.0357 30.969 84.94 30.7775 84.94 30.5222C84.94 30.3732 84.9613 30.2455 85.0038 30.1391C85.6209 28.4154 86.1104 26.862 86.4721 25.4788C86.8552 24.0956 87.1105 22.6911 87.2382 21.2653C87.4297 19.3501 87.5255 17.9456 87.5255 17.0518C87.5255 14.6897 87.068 12.8809 86.1529 11.6254C86.0465 11.4977 85.9933 11.3275 85.9933 11.1147C85.9933 10.6891 86.2913 10.2954 86.8871 9.93362C87.4829 9.55057 88.0682 9.35905 88.6427 9.35905C89.0258 9.35905 89.3024 9.44417 89.4726 9.61442C89.7493 9.72082 89.9302 9.89106 90.0153 10.1251C90.5473 11.5296 91.2815 12.7213 92.2178 13.7002C93.1541 14.6578 94.2607 15.1366 95.5375 15.1366C95.7716 15.1366 96.1227 15.0941 96.5909 15.0089C96.8888 14.9664 97.0803 14.9451 97.1654 14.9451C97.5272 14.9451 97.7932 15.0302 97.9634 15.2005C98.1549 15.3494 98.2507 15.5622 98.2507 15.8389C98.2507 16.1368 98.123 16.4347 97.8677 16.7326C97.6336 17.0305 97.3144 17.2434 96.9101 17.371C96.0376 17.669 95.1651 17.8179 94.2926 17.8179C93.2499 17.8179 92.2497 17.6051 91.2921 17.1795C91.2495 18.3712 91.1963 19.265 91.1325 19.8608L90.9091 21.8718C91.739 21.7228 92.5689 21.5951 93.3988 21.4887L93.8457 21.4568C94.6969 21.4568 95.1225 21.7441 95.1225 22.3187C95.1225 22.7017 94.9097 23.0422 94.4841 23.3401C94.0585 23.638 93.6223 23.8296 93.1754 23.9147C92.5157 24.0424 91.6113 24.1807 90.4622 24.3296C90.2281 25.3724 89.9727 26.3513 89.6961 27.2663C91.1006 26.7556 92.5263 26.5002 93.9734 26.5002C95.5694 26.5002 97.1654 26.7981 98.7614 27.394Z" stroke="#243208" stroke-width="5.95897" mask="url('#path-1-outside-1_301_890')"></path>
</svg>
